<?xml version="1.0" encoding="UTF-8" standalone="no"?>
<!-- Created with Inkscape (http://www.inkscape.org/) -->
<svg
   xmlns:dc="http://purl.org/dc/elements/1.1/"
   xmlns:cc="http://creativecommons.org/ns#"
   xmlns:rdf="http://www.w3.org/1999/02/22-rdf-syntax-ns#"
   xmlns:svg="http://www.w3.org/2000/svg"
   xmlns="http://www.w3.org/2000/svg"
   xmlns:xlink="http://www.w3.org/1999/xlink"
   xmlns:sodipodi="http://sodipodi.sourceforge.net/DTD/sodipodi-0.dtd"
   xmlns:inkscape="http://www.inkscape.org/namespaces/inkscape"
   width="685.29675"
   height="1380.9076"
   id="svg2"
   sodipodi:version="0.32"
   inkscape:version="0.46"
   sodipodi:docname="Phone.svg"
   inkscape:output_extension="org.inkscape.output.svg.inkscape"
   version="1.0">
 
  <g>
    <path d="M98,100     L100,98         L102,100      L100,102      z" style="fill:#000000; stroke:#000000;stroke-width:0.0" />
    <path d="M99,105     L100,104       L101,105      L100,106      z" style="fill:#000000; stroke:#000000;stroke-width:0.0" />
    <path d="M99.5,110  L100,109.5    L100.5,110   L100,110.5   z" style="fill:#000000; stroke:#000000;stroke-width:0.0" />
    <path d="M99.75,115 L100,114.75 L100.25,115 L100,115.25 z" style="fill:#000000; stroke:#000000;stroke-width:0.0" />
    <path d="M99.9,120   L100,119.9   L100.1,120   L100,120.1   z" style="fill:#000000; stroke:#000000;stroke-width:0.0" />
    <path d="M99.95,125 L100,124.95  L100.05,125   L100,125.05 z" style="fill:#000000; stroke:#000000;stroke-width:0.0" />
    <path d="M99.975,130 L100,129.975  L100.025,130   L100,130.025 z" style="fill:#000000; stroke:#000000;stroke-width:0.0" />

    <path d="M100.5,140     L100.5,190 " style="fill:none; stroke:#000000;stroke-width:1" />
    <path d="M110,140     L110,190 " style="fill:none; stroke:#000000;stroke-width:1" />

    <path d="M100,200     L101,300 " style="fill:none; stroke:#000000;stroke-width:1" />
    <path d="M110.1,200     L111.1,300 " style="fill:none; stroke:#000000;stroke-width:1" />
    <path d="M120.2,200     L121.2,300 " style="fill:none; stroke:#000000;stroke-width:1" />
    <path d="M130.3,200     L131.3,300 " style="fill:none; stroke:#000000;stroke-width:1" />
    <path d="M140.4,200     L141.4,300 " style="fill:none; stroke:#000000;stroke-width:1" />
    <path d="M150.5,200     L151.5,300 " style="fill:none; stroke:#000000;stroke-width:1" />
    <path d="M160.6,200     L161.6,300 " style="fill:none; stroke:#000000;stroke-width:1" />
    <path d="M170.7,200     L171.7,300 " style="fill:none; stroke:#000000;stroke-width:1" />
    <path d="M180.8,200     L181.8,300 " style="fill:none; stroke:#000000;stroke-width:1" />
    <path d="M190.9,200     L191.9,300 " style="fill:none; stroke:#000000;stroke-width:1" />
    <path d="M200.95,200     L201.95,300 " style="fill:none; stroke:#000000;stroke-width:1" />
    <path d="M210.975,200     L211.975,300 " style="fill:none; stroke:#000000;stroke-width:1" />


  </g>
</svg>
