<?xml version="1.0" encoding="UTF-8" standalone="no"?>
<!-- Created with Inkscape (http://www.inkscape.org/) -->

<svg
   xmlns:dc="http://purl.org/dc/elements/1.1/"
   xmlns:cc="http://creativecommons.org/ns#"
   xmlns:rdf="http://www.w3.org/1999/02/22-rdf-syntax-ns#"
   xmlns:svg="http://www.w3.org/2000/svg"
   xmlns="http://www.w3.org/2000/svg"
   xmlns:xlink="http://www.w3.org/1999/xlink"
   xmlns:sodipodi="http://sodipodi.sourceforge.net/DTD/sodipodi-0.dtd"
   xmlns:inkscape="http://www.inkscape.org/namespaces/inkscape"
   width="477.00006"
   height="705.50397"
   id="svg2"
   version="1.1"
   inkscape:version="0.46+devel"
   sodipodi:docname="magier.svg">
  <defs
     id="defs4">
    <linearGradient
       inkscape:collect="always"
       id="linearGradient4904">
      <stop
         style="stop-color:#847878;stop-opacity:1;"
         offset="0"
         id="stop4906" />
      <stop
         style="stop-color:#847878;stop-opacity:0;"
         offset="1"
         id="stop4908" />
    </linearGradient>
    <inkscape:path-effect
       effect="spiro"
       id="path-effect3629"
       is_visible="true" />
    <inkscape:path-effect
       effect="spiro"
       id="path-effect3619"
       is_visible="true" />
    <inkscape:path-effect
       effect="spiro"
       id="path-effect3615"
       is_visible="true" />
    <inkscape:path-effect
       effect="spiro"
       id="path-effect3608"
       is_visible="true" />
    <inkscape:path-effect
       effect="spiro"
       id="path-effect2832"
       is_visible="true" />
    <inkscape:perspective
       sodipodi:type="inkscape:persp3d"
       inkscape:vp_x="0 : 526.18109 : 1"
       inkscape:vp_y="0 : 1000 : 0"
       inkscape:vp_z="744.09448 : 526.18109 : 1"
       inkscape:persp3d-origin="372.04724 : 350.78739 : 1"
       id="perspective10" />
    <inkscape:perspective
       id="perspective2824"
       inkscape:persp3d-origin="0.5 : 0.33333333 : 1"
       inkscape:vp_z="1 : 0.5 : 1"
       inkscape:vp_y="0 : 1000 : 0"
       inkscape:vp_x="0 : 0.5 : 1"
       sodipodi:type="inkscape:persp3d" />
    <linearGradient
       inkscape:collect="always"
       xlink:href="#linearGradient4904"
       id="linearGradient4910"
       x1="735.51562"
       y1="494.29688"
       x2="758.75"
       y2="519.54688"
       gradientUnits="userSpaceOnUse" />
    <linearGradient
       inkscape:collect="always"
       xlink:href="#linearGradient4904"
       id="linearGradient3070"
       gradientUnits="userSpaceOnUse"
       x1="735.51562"
       y1="494.29688"
       x2="758.75"
       y2="519.54688" />
  </defs>
  <sodipodi:namedview
     id="base"
     pagecolor="#ffffff"
     bordercolor="#666666"
     borderopacity="1.0"
     inkscape:pageopacity="0.0"
     inkscape:pageshadow="2"
     inkscape:zoom="0.5"
     inkscape:cx="521.31074"
     inkscape:cy="300.71425"
     inkscape:document-units="px"
     inkscape:current-layer="layer1"
     showgrid="false"
     inkscape:window-width="1280"
     inkscape:window-height="742"
     inkscape:window-x="-5"
     inkscape:window-y="-3"
     inkscape:window-maximized="1"
     showguides="true"
     inkscape:guide-bbox="true" />
  <metadata
     id="metadata7">
    <rdf:RDF>
      <cc:Work
         rdf:about="">
        <dc:format>image/svg+xml</dc:format>
        <dc:type
           rdf:resource="http://purl.org/dc/dcmitype/StillImage" />
        <dc:title />
      </cc:Work>
    </rdf:RDF>
  </metadata>
  <g
     inkscape:groupmode="layer"
     id="layer2"
     inkscape:label="Ebene"
     style="display:inline"
     transform="translate(-495.5,-250.79075)" />
  <g
     inkscape:label="Ebene 1"
     inkscape:groupmode="layer"
     id="layer1"
     transform="translate(-495.5,-250.79075)">
    <g
       id="g2951">
      <path
         sodipodi:nodetypes="cscccccscccccccsccccccscscsccccssssssccscscsssscsssssscccsssssscsccccscscsccccsssssccccccscscccssssscssssssssssssssssssssssssssssssssssssccsscscscscsccccscscsccc"
         id="path3883"
         d="m 713.6875,447.28125 c -1.08396,1.54541 -2.23479,3.11027 -3.40625,4.75 1.16909,-1.63256 2.32132,-3.20886 3.40625,-4.75 z m -7.59375,11.875 c -6.71253,34.59749 -24.72592,100.86208 -23.25,151.78125 0,0 1.23353,19.10692 2.15625,41.8125 l 0.125,-0.28125 c 0.002,0.33938 0.0279,0.69004 0.0312,1.03125 -0.20849,-23.05581 1.9375,-42.5625 1.9375,-42.5625 9.72221,-49.31944 12.81917,-117.1078 19,-151.78125 l 5e-5,0 z m 108.0625,3.8125 c -1.72977,8.99661 -3.13291,17.70443 -4.6875,26.71875 3.05334,7.49894 6.39803,15.17367 9.625,22.15625 l -32,35.625 c -5.98816,6.66501 -2.51074,18.50532 0.6875,26.875 5.85353,15.31847 22.49307,24.0284 31.84375,37.5 l 17.65625,25.4375 c -0.71762,1.30769 -1.5643,2.55135 -2.5,3.75 l 4.625,13.9375 27.59375,45.25 c 0,0 -0.83767,-0.41746 -2.375,-1 0.10902,0.0772 5.88603,4.17103 6.59375,7.375 0.61053,2.76397 -2.46875,8.125 -2.46875,8.125 -1.28688,4.23532 6.49515,4.09787 6.03125,8.5 -0.3985,3.7815 -6.03125,6 -6.03125,6 -2.91197,1.66267 -0.69758,6.72247 -1.75,9.90625 -0.84423,2.55395 -3.60043,7.17728 -3.625,7.21875 0.61136,-0.28575 1.22616,-0.56744 1.84375,-0.875 l -5.65625,36.4375 c -1.21791,0.68084 -2.38594,1.43168 -3.5,2.25 0,0 -4e-5,0.0308 0,0.0312 0.007,0.0941 0.67111,9.12603 -0.0312,13.59375 -0.78301,4.98075 -2.4168,9.88977 -4.59375,14.4375 -1.93738,4.04724 -6.22308,6.89918 -7.4375,11.21875 -0.88601,3.15145 1.27912,6.67535 0.34375,9.8125 -1.51612,5.08497 -7.70466,7.90523 -9.1875,13 -1.35279,4.64795 0.71875,14.5 0.71875,14.5 0.0877,1.78395 -0.0595,3.63823 -0.21875,5.5 8.8705,-4.64331 17.36944,-9.89498 25.34375,-15.875 20.07715,-15.05609 48,-58 48,-58 13.74185,-16.60473 20.58158,-38.4392 36,-53.5 8.0157,-7.82974 27,-18.5 27,-18.5 -10.6579,1.36846 -20.3628,2.02212 -33.5,5.25 -14.66102,3.6023 -23.55982,-15.39022 -53.25,-42.75 -25.43646,-23.43994 -52.52324,-70.67532 -49.25,-99.25 2.79895,-24.43424 14.61963,-41.43093 18,-89.5 0.7137,-10.14891 -2.41419,-22.41975 -4.71875,-29.90625 -0.0426,0.0119 -0.0816,0.0199 -0.125,0.0312 -0.0197,0.005 -0.0426,-0.005 -0.0625,0 -0.21928,0.0551 -0.44557,0.0879 -0.6875,0.125 -0.25482,0.0391 -0.53182,0.0774 -0.8125,0.0937 -0.29108,0.0169 -0.58652,0.042 -0.90625,0.0312 -1.22882,-0.0412 -3.2761,-0.12729 -4.9375,-0.1875 -7.41386,-0.26869 -18.29596,-0.72757 -27.59375,-1.34375 l -5e-5,2e-4 z m -34.46875,252.3125 c -3.36393,1.02187 -6.77328,1.83388 -10.21875,2.28125 -0.81235,0.10548 -1.62304,0.15043 -2.4375,0.21875 -0.004,0.008 0.004,0.023 0,0.0312 -1.172,2.71643 -2.48321,6.52385 -2.21875,9.625 0.45062,5.28412 4.15086,6.14866 4.9375,10.96875 0.40043,2.45361 -4.01002,4.92602 -5.28125,7.0625 -2.3533,3.95506 -0.71875,13.8125 -0.71875,13.8125 -0.11484,2.23933 0.45382,4.59187 -0.34375,6.6875 -0.51875,1.36301 -1.84956,3.04245 -3.09375,4.4375 0.44161,-0.0731 0.86695,-0.11103 1.3125,-0.1875 l -5.65625,31.125 c -1.52886,0.77598 -3.04537,1.59675 -4.53125,2.4375 0,0 0.23937,18.43362 -1.875,27.3125 -1.63743,6.87606 -8.25,19.53125 -8.25,19.53125 -2.21889,5.26229 -5.61817,10.34011 -6.09375,16.03125 -0.43309,5.18274 3.40625,14.5625 3.40625,14.5625 0.50219,2.49819 -3.94702,8.15228 -4.5625,10.625 -0.82185,3.30184 -1.42171,6.51193 -1.46875,9.46875 C 751.90904,896.01774 766,891.375 766,891.375 c 9.24642,-2.31161 18.54236,-4.90785 27.71875,-7.875 l 1.625,-8.9375 c 0.58929,-3.23775 -4.28811,-5.52839 -4.5,-8.8125 -0.1441,-2.23347 1.74596,-4.13188 2.25,-6.3125 1.49311,-6.4596 2.94126,-13.18747 2.25,-19.78125 -0.4909,-4.68262 -4.15987,-8.70811 -4.46875,-13.40625 -0.25904,-3.94006 2.12749,-7.67834 2.25,-11.625 0.13235,-4.26371 -2.28547,-8.46841 -1.65625,-12.6875 L 793.375,789.25 c -0.69019,-0.0791 -1.36931,-0.16815 -2.0625,-0.28125 l 1.78125,-36.0625 c 1.48081,-0.11429 2.94489,-0.20377 4.40625,-0.25 l -0.875,-6.46875 c -0.3906,-2.88763 -3.79786,-4.63437 -4.59375,-7.4375 -1.2547,-4.41908 -0.71875,-9.1875 -0.71875,-9.1875 0,-4.01205 -4.86088,-6.09274 -7.78125,-8.84375 -2.43509,-2.29387 -3.84375,-5.4375 -3.84375,-5.4375 z m -94.46875,3.34375 c -1.83719,28.87753 -6.48074,58.5444 -10.5,87.1875 -10e-4,0.0101 10e-4,0.0211 0,0.0312 -0.88724,6.32342 -1.74371,12.60959 -2.53125,18.8125 -0.78882,6.21297 -1.51098,12.35374 -2.125,18.40625 -0.30701,3.02625 -0.59447,6.02128 -0.84375,9 -8.6e-4,0.0102 8.6e-4,0.021 0,0.0312 -0.24818,2.96811 -0.4747,5.92777 -0.65625,8.84375 0,0 -3.64234,0.20131 -9.34375,0.59375 -3.95571,0.27228 -8.84429,0.63682 -14.40625,1.125 -1.93978,0.17026 -3.97259,0.33292 -6.03125,0.53125 -8.22763,0.79291 -17.26766,1.81531 -25.8125,3.09375 -2.13862,0.32 -4.25279,0.67848 -6.3125,1.03125 -4.10845,0.70409 -8.0361,1.4724 -11.59375,2.3125 -1.78323,0.4211 -3.47684,0.85582 -5.0625,1.3125 -1.45413,0.4188 -2.96841,0.92005 -4.5,1.4375 -0.74569,0.25195 -1.48814,0.47651 -2.25,0.75 -0.0128,0.005 -0.0185,0.0267 -0.0312,0.0312 -0.72319,0.25985 -1.48224,0.53429 -2.21875,0.8125 -0.45044,0.17025 -0.88868,0.32317 -1.34375,0.5 -2.38906,0.92754 -4.81923,1.94226 -7.3125,3.03125 -0.80424,0.3514 -1.62509,0.7278 -2.4375,1.09375 -0.44844,0.20195 -0.89314,0.38764 -1.34375,0.59375 -0.0426,0.0195 -0.0824,0.043 -0.125,0.0625 -1.22885,0.56287 -2.47702,1.15891 -3.71875,1.75 -0.0424,0.0202 -0.0826,0.0423 -0.125,0.0625 -1.24261,0.59223 -2.49914,1.19593 -3.75,1.8125 -0.0422,0.0208 -0.0828,0.0417 -0.125,0.0625 -1.25132,0.61745 -2.49508,1.2371 -3.75,1.875 -0.0542,0.0275 -0.10209,0.0662 -0.15625,0.0937 -1.24272,0.63246 -2.47708,1.25759 -3.71875,1.90625 -1.01719,0.53152 -2.01737,1.08481 -3.03125,1.625 -4.11254,2.19112 -8.19801,4.43773 -12.15625,6.6875 -0.04,0.0227 -0.085,0.0398 -0.125,0.0625 -1.12774,0.64134 -2.2058,1.26729 -3.3125,1.90625 -1.32818,0.76668 -2.67694,1.52303 -3.96875,2.28125 -0.10292,0.0604 -0.20983,0.12715 -0.3125,0.1875 -2.29282,1.34753 -4.53983,2.70446 -6.6875,4 -0.24548,0.14811 -0.47543,0.29028 -0.71875,0.4375 -2.03439,1.23087 -4.00867,2.44039 -5.875,3.59375 -3.91072,2.41642 -7.45328,4.63863 -10.40625,6.53125 -1.22307,0.78406 -1.91303,1.24113 -2.9375,1.90625 -1.49809,0.97263 -3.23846,2.08226 -4.25,2.75 -0.0633,0.0418 -0.18869,0.14698 -0.25,0.1875 -1.42182,0.94088 -2.44028,1.61587 -2.5,1.65625 L 496,921.375 c 32.43096,-3.72386 66.1537,-7.46365 97.28125,-11.1875 17.82346,-2.13226 35.11268,6.43205 53.0625,6.59375 11.31919,0.10197 25.4348,-1.79711 39.96875,-4.5625 1.61613,-3.9404 1.59014,-8.47546 1.5625,-12.75 -0.0297,-4.58567 -2.09375,-13.59375 -2.09375,-13.59375 -0.55493,-3.61066 2.23375,-7.13381 2.03125,-10.78125 -0.22863,-4.11797 -3.625,-11.8125 -3.625,-11.8125 -1.76372,-5.75516 4.4177,-11.48121 4.5,-17.5 0.0669,-4.89093 -3.25,-14.3125 -3.25,-14.3125 -1.02603,-4.4859 2.4044,-8.9921 2.375,-13.59375 -0.0295,-4.61238 -2.5625,-13.59375 -2.5625,-13.59375 -0.47164,-0.0364 -0.92678,-0.0996 -1.40625,-0.125 l 0.71875,-37.46875 c 1.17678,0.30232 2.34259,0.61411 3.53125,0.90625 0.004,-0.53827 -0.009,-1.19276 0,-1.625 0.0589,-2.7125 0.34375,-8.125 0.34375,-8.125 0.10847,-2.49486 -2.36181,-4.56757 -2.46875,-7.0625 C 685.76556,746.04072 689.5,737 689.5,737 c 0.62025,-2.41897 -2.49365,-4.59665 -2.46875,-7.09375 0.0286,-2.87171 1.39296,-6.7392 2.875,-10.1875 -1.53463,0.62792 -3.15093,1.27969 -4.875,2.03125 0.0735,-1.04454 0.12168,-2.08105 0.1875,-3.125 z"
         style="fill:#58534f;fill-opacity:1;stroke:#000000;stroke-width:1px;stroke-linecap:butt;stroke-linejoin:miter;stroke-opacity:1" />
      <rect
         transform="matrix(0.78232934,0.622865,-0.622865,0.78232934,0,0)"
         y="-95.575378"
         x="982.92902"
         height="45.75"
         width="9.25"
         id="rect4933"
         style="fill:#2b1100;fill-opacity:1;stroke:#000000;stroke-width:1;stroke-linecap:square;stroke-linejoin:round;stroke-miterlimit:4;stroke-opacity:1;stroke-dasharray:none;stroke-dashoffset:0" />
      <rect
         transform="matrix(0.78174738,0.62359525,-0.62359525,0.78174738,0,0)"
         ry="5"
         y="-96.445732"
         x="975.1416"
         height="7.5"
         width="24"
         id="rect4935"
         style="fill:#999999;fill-opacity:1;stroke:#000000;stroke-width:1;stroke-linecap:square;stroke-linejoin:round;stroke-miterlimit:4;stroke-opacity:1;stroke-dasharray:none;stroke-dashoffset:0" />
      <rect
         transform="matrix(0.79391918,0.60802331,-0.60802331,0.79391918,0,0)"
         y="-29.879072"
         x="980.23456"
         height="36.062447"
         width="15.556349"
         id="rect4927"
         style="fill:#cccccc;fill-opacity:1;stroke:#000000" />
      <path
         id="rect4922"
         d="m 831.7601,590.52873 c -2.81371,-2.22627 -6.58528,-2.40052 -9.54556,-0.77837 l -40.28908,-31.87758 -4.16891,5.26895 40.28909,31.87758 c -0.89784,3.25401 0.13915,6.88439 2.95287,9.11066 3.75163,2.96837 9.1911,2.33436 12.15947,-1.41726 2.96837,-3.75163 2.35375,-9.21561 -1.39788,-12.18398 z"
         style="fill:#1a1a1a;fill-opacity:1;stroke:#000000" />
      <path
         sodipodi:nodetypes="csccscccscsccssccssscccscc"
         id="path4042"
         d="m 717.78125,441.34375 c -1.10562,1.60802 -2.26354,3.27929 -3.46875,5 1.19864,-1.70854 2.36919,-3.40305 3.46875,-5 z m 41.625,11.25 c -8.17083,0.17974 -16.54093,2.91555 -24.75,3.6875 -9.15869,0.86124 -24.08766,2.40842 -28.5625,2.875 -6.18083,34.67345 -9.28515,102.46181 -19.00736,151.78125 0,0 -2.69155,24.32551 -1.77389,50.75 0,0 14.75888,-12.08957 31.76164,-12.37132 17.70375,-0.29337 31.83211,9.18382 31.83211,9.18382 0,0 -4.29853,-38.67765 0,-57.28125 1.26957,-5.49457 9.22315,-21.58142 12.61669,-27.80934 l 2.58215,0.0646 7.42616,32.71352 c 3.41771,15.0556 15.13881,26.97328 24.03125,39.59375 2.79802,3.97104 9.1875,11.3125 9.1875,11.3125 16.49232,-3.77988 27.35263,-10.37577 32.53125,-19.8125 L 819.625,611.84375 c -9.35068,-13.4716 -25.99022,-22.18153 -31.84375,-37.5 -3.19824,-8.36968 -6.6867,-20.20571 -0.69854,-26.87072 l 32.01104,-35.62928 c -3.22697,-6.98258 -6.57166,-14.65731 -9.625,-22.15625 1.55634,-9.02446 2.95503,-17.74262 4.6875,-26.75 -5.73084,-0.3728 -10.87207,-0.78361 -14.15625,-1.28125 -11.04789,-1.67406 -32.5,-8.21875 -32.5,-8.21875 -2.66463,-0.67348 -5.37014,-0.90366 -8.09375,-0.84375 z"
         style="fill:#645b5b;fill-opacity:1;stroke:#000000;stroke-width:1px;stroke-linecap:butt;stroke-linejoin:miter;stroke-opacity:1" />
      <path
         id="path4937"
         d="m 781,541.86218 c 1.55532,-2.93907 1.36134,-6.68625 4.30689,-8.85962 3.31821,-4.39442 8.58561,-6.4785 12.73938,-9.92394 3.91365,-2.43073 5.16663,-7.31336 8.99513,-9.82232 l 0.6208,-0.55411 0.5878,-0.59001"
         style="fill:none;stroke:#000000;stroke-width:1px;stroke-linecap:butt;stroke-linejoin:miter;stroke-opacity:1" />
      <path
         id="path4943"
         d="m 778.75,529.11218 c 1.44472,-5.18519 4.76062,-9.96342 3.26652,-15.58202 0.005,-1.30602 -10e-4,-2.61208 -0.017,-3.91801"
         style="fill:none;stroke:#000000;stroke-width:1px;stroke-linecap:butt;stroke-linejoin:miter;stroke-opacity:1" />
      <path
         d="m 774.1875,480.65625 c -9.4e-4,-8e-5 -0.21768,0.0308 -0.21875,0.0312 -0.001,4.1e-4 -0.0961,0.0408 -0.125,0.0625 -0.0289,0.0217 -0.0467,0.046 -0.0625,0.0625 -0.0316,0.033 -0.0487,0.0421 -0.0625,0.0625 -0.0551,0.0816 -0.0683,0.12755 -0.0937,0.1875 -0.0509,0.11991 -0.12062,0.27015 -0.1875,0.46875 -0.13375,0.3972 -0.28427,0.98399 -0.46875,1.625 -0.74965,2.60473 -0.99463,3.23133 -1.96875,5.4375 -0.93241,2.11173 -1.48248,3.80666 -2.5625,8.0625 -0.34981,1.37842 -0.55867,2.28185 -0.71875,2.8125 -0.08,0.26533 -0.15016,0.41721 -0.1875,0.5 -0.0187,0.0414 -0.0463,0.0823 -0.0312,0.0625 -0.0432,0.0319 -0.0956,0.0555 -0.125,0.0937 -0.085,0.11062 -0.10116,0.18507 -0.125,0.28125 -0.0477,0.19237 -0.0778,0.4252 -0.0937,0.78125 -0.032,0.71209 -0.031,1.95834 -0.0312,4.25 -4e-4,2.75891 -0.0295,5.68956 -0.0625,6.4375 L 767,513.3125 a 0.50005,0.50005 0 0 0 0.96875,0.15625 l 0.4375,-1.625 c 1.17959,-4.31689 1.63482,-5.82243 2.03125,-6.96875 0.63506,-1.83635 2.35354,-6.10504 3.75,-9.3125 l 1.25,-2.84375 a 0.50005,0.50005 0 0 0 0.0312,-0.25 l -0.125,-0.90625 c -0.19127,-1.77309 -0.45799,-5.93409 -0.53125,-8.0625 -0.0209,-0.60766 -0.0637,-1.15673 -0.0937,-1.59375 -0.015,-0.21851 -0.0175,-0.42156 -0.0312,-0.5625 -0.007,-0.0705 -0.0244,-0.10515 -0.0312,-0.15625 -0.007,-0.0511 0.004,-0.0809 -0.0312,-0.1875 -0.01,-0.029 -0.005,-0.0501 -0.0312,-0.0937 -0.0133,-0.0218 -0.0621,-0.0933 -0.0625,-0.0937 -3.7e-4,-4.2e-4 -0.0933,-0.0622 -0.0937,-0.0625 -8e-4,-5.9e-4 -0.24906,-0.0937 -0.25,-0.0937 z"
         id="path4920"
         style="fill:#965e37;fill-opacity:1;stroke:none"
         inkscape:original="M 774.15625 481.15625 C 774.12237 481.05313 773.80355 482.00938 773.4375 483.28125 C 772.68636 485.89115 772.44585 486.56833 771.46875 488.78125 C 770.54732 490.8681 770.01554 492.53321 768.9375 496.78125 C 768.23708 499.54126 768.00465 500.3437 767.84375 500.375 C 767.65429 500.41187 767.62552 500.85627 767.625 505.4375 C 767.6246 508.19964 767.5974 511.11563 767.5625 511.90625 L 767.5 513.34375 L 767.9375 511.71875 C 769.11773 507.39951 769.56597 505.88344 769.96875 504.71875 C 770.61579 502.84775 772.31706 498.59447 773.71875 495.375 L 774.96875 492.53125 L 774.84375 491.625 C 774.64888 489.81852 774.3864 485.67825 774.3125 483.53125 C 774.27106 482.32813 774.19015 481.25938 774.15625 481.15625 z "
         inkscape:radius="0.5"
         sodipodi:type="inkscape:offset" />
      <path
         sodipodi:nodetypes="csc"
         id="path4914"
         d="m 763,546.61218 c 0,0 3.0774,-19.27608 3.75,-29 0.60382,-8.72954 0.25,-26.25 0.25,-26.25"
         style="fill:none;stroke:#000000;stroke-width:1px;stroke-linecap:butt;stroke-linejoin:miter;stroke-opacity:1" />
      <path
         sodipodi:nodetypes="cc"
         id="path4875"
         d="m 719.40625,541.3125 c 32.51448,-9.4625 41.56889,-20.17077 48.5,-58.75"
         style="fill:none;stroke:#000000;stroke-width:1px;stroke-linecap:butt;stroke-linejoin:miter;stroke-opacity:1" />
      <path
         sodipodi:nodetypes="csc"
         id="path4916"
         d="m 766.75,519.11218 c 0,0 2.15324,-9.60507 3.75,-14.25 2.2695,-6.60193 8.25,-19.25 8.25,-19.25"
         style="fill:none;stroke:#000000;stroke-width:1px;stroke-linecap:butt;stroke-linejoin:miter;stroke-opacity:1" />
      <path
         id="path3606"
         d="m 727.53125,325.375 c -4.15394,0.0206 -6.65948,0.23461 -6.8125,0.5625 0,0 18.97951,9.5253 27.84375,15.34375 5.53404,3.63252 9.83971,9.11359 15.71875,12.15625 0,0 0.80915,0.5199 0.96875,0.625 5.61068,-3.89175 8.86341,-7.34158 11.78125,-10.75 -1.74257,-1.05566 -3.4815,-2.08813 -5.25,-3.09375 -6.48343,-3.68666 -12.565,-8.31402 -19.625,-10.71875 -6.22027,-2.1187 -17.02131,-3.45558 -23.625,-4.125 -0.31171,-6.4e-4 -0.70462,-10e-4 -1,0 z m 46.03125,29.84375 c -1.2679,0.60581 -2.49282,1.17516 -3.71875,1.75 0.20529,0.12809 0.44174,0.27311 0.65625,0.40625 1.01268,-0.69632 2.03645,-1.40645 3.0625,-2.15625 z m 61.625,8.03125 c -0.66343,4.35464 -1.32293,8.7223 -1.84375,13.09375 3.53139,-0.33506 7.07187,-0.82708 10.59375,-1.46875 12.96068,-2.36137 24.45524,-7.65054 39,-6.84375 -0.49059,-0.0377 -19.15618,-1.46486 -28.65625,-2.46875 -6.37476,-0.67363 -12.73839,-1.48256 -19.09375,-2.3125 z m 47.90625,4.71875 c 0.0378,0.0242 0.0559,0.0693 0.0937,0.0937 0.12591,0.008 0.24863,-0.009 0.375,0 0,0 -0.39526,-0.0804 -0.46875,-0.0937 z"
         style="fill:#484840;fill-opacity:1;stroke:#000000;stroke-width:1px;stroke-linecap:butt;stroke-linejoin:miter;stroke-opacity:1" />
      <path
         id="path3642"
         d="m 777.03125,343.3125 c -6.54335,7.64349 -14.62728,15.5546 -47.75,27.96875 23.48918,-6.36829 32.51666,-10.44133 44.28125,-16.0625 -12.38095,9.04762 -23.63251,13.66246 -37.125,27.15625 l -20.375,30 31.78125,16.0625 c 32.09298,-58.82943 16.91684,-1.46762 15.375,33.21875 -0.22117,12.87201 2.85268,25.70536 4.28125,38.5625 4.16667,-17.73809 2.98958,-6.1994 7.15625,-23.9375 0.13469,25.11594 5.00885,40.57451 11.78125,57.15625 2.5,-6.21069 10.34375,-43.51832 12.84375,-54.28125 2.84751,11.4382 1.08,19.97804 6.78125,28.5625 4.64286,-22.02381 6.34732,-39.96793 11.78125,-61.78125 2.89941,-11.63906 9.99869,-26.20221 12.5,-37.875 2.14155,-9.99388 1.70976,-20.47449 2.875,-30.6875 0.53816,-4.71676 1.25334,-9.42913 1.96875,-14.125 -0.34352,-0.0449 -0.68781,-0.08 -1.03125,-0.125 L 827.5,384.5 c -2.07058,6.66187 -9.84411,11.76251 -16.78125,12.5 -5.98613,0.63638 -16.4375,-7.5 -16.4375,-7.5 -9.04581,-4.12961 -15.11976,-15.41795 -15.71875,-25.34375 -0.28541,-4.72953 2.87627,-11.25746 5.9375,-16.40625 0.71429,0.39973 1.43507,0.77876 2.15625,1.15625 -3.28621,-1.72589 -6.44128,-3.66159 -9.625,-5.59375 z m 9.625,5.59375 c 0.5153,0.26973 1.04084,0.52338 1.5625,0.78125 -0.52102,-0.25843 -1.04777,-0.51092 -1.5625,-0.78125 z"
         style="fill:#beb7b1;fill-opacity:1;stroke:#000000;stroke-width:1px;stroke-linecap:butt;stroke-linejoin:miter;stroke-opacity:1" />
      <path
         id="path3631"
         d="m 784.5,347.75 c -3.06123,5.14879 -6.22291,11.67672 -5.9375,16.40625 0.59899,9.9258 6.67294,21.21414 15.71875,25.34375 0,0 10.45137,8.13638 16.4375,7.5 6.93714,-0.73749 14.71067,-5.83813 16.78125,-12.5 l 6.65625,-21.375 c -4.72081,-0.61885 -9.43217,-1.25324 -14.15625,-1.84375 -10.53662,-1.31708 -20.34816,-6.29189 -30,-10.71875 -1.87986,-0.86221 -3.69572,-1.80279 -5.5,-2.8125 z"
         style="fill:#edad80;fill-opacity:1;stroke:#000000;stroke-width:1px;stroke-linecap:butt;stroke-linejoin:miter;stroke-opacity:1" />
      <path
         sodipodi:nodetypes="csssscsssssccsssc"
         id="path2830"
         d="m 798.57143,251.29075 c 0,0 12.10137,10.05017 13.21428,17.14286 1.49763,9.54443 -6.16927,17.00793 -10.35714,25.71429 -4.52381,9.40476 -6.51352,20.88375 -13.57143,28.57142 -2.05736,2.24094 -6.25358,3.81779 -9.28571,3.57143 -19.04762,-1.54762 -55.71429,-1.42857 -55.71429,-1.42857 0,0 19.92973,1.45609 29.28572,4.64286 7.06,2.40473 13.15942,7.02762 19.64285,10.71428 6.07143,3.45238 11.86583,7.4454 18.21429,10.35715 9.65184,4.42686 19.46338,9.3972 30,10.71428 11.42857,1.42857 22.83197,3.07539 34.28571,4.28572 9.62521,1.01711 28.92858,2.5 28.92858,2.5 -14.11999,-9.11193 -20.20106,-5.90591 -28.92858,-11.07143 -5.35714,-4.76191 -13.20169,-7.71767 -16.07142,-14.28572 -9.39168,-21.49505 5.84846,-60.24571 0.35714,-68.92857 -4.82471,-7.62882 -11.10756,-15.46544 -19.28572,-19.28571 -6.33073,-2.95728 -20.71428,-3.21429 -20.71428,-3.21429 z"
         style="fill:#809196;fill-opacity:1;stroke:#000000;stroke-width:1px;stroke-linecap:butt;stroke-linejoin:miter;stroke-opacity:1" />
      <path
         sodipodi:nodetypes="cscsscc"
         inkscape:original-d="m 840.71429,349.1479 c 0,0 -16.86277,0.1075 -25,-1.78572 -8.00984,-1.86358 -22.85715,-9.28571 -22.85715,-9.28571 l 22.5,12.85714 c 8.47571,4.84326 18.95832,4.73069 28.57143,6.42857 3.66436,0.6472 11.07143,1.42857 11.07143,1.42857 l -14.28571,-9.64285 z"
         inkscape:path-effect="#path-effect3615"
         id="path3613"
         d="m 840.71429,349.1479 c -8.35777,0.73091 -16.83097,0.12568 -25,-1.78572 -8.04008,-1.88123 -15.783,-5.02679 -22.85715,-9.28571 l 22.5,12.85714 c 4.30882,2.46218 8.84752,4.64244 13.72753,5.54448 4.88002,0.90204 9.8862,0.66186 14.8439,0.88409 3.72166,0.16683 7.42931,0.64523 11.07143,1.42857 l -14.28571,-9.64285 0,0"
         style="fill:#4d4d4d;fill-opacity:1;stroke:none" />
      <path
         sodipodi:nodetypes="csccsc"
         id="path3617"
         d="m 805,315.93361 c 0,0 8.90077,-10.58753 11.78571,-16.78571 4.31354,-9.26747 7.85715,-29.64286 7.85715,-29.64286 l 3.57143,5.35714 c 0,0 -1.57914,20.05084 -7.14286,27.85715 C 816.93209,308.52712 805,315.93361 805,315.93361 z"
         style="fill:#4d4d4d;fill-opacity:1;stroke:none" />
      <path
         sodipodi:nodetypes="cscssccss"
         id="path3627"
         d="m 807.14286,380.57647 c -2.16761,-0.72874 -5.93713,-2.35292 -8.21429,-2.14286 -8.13057,0.74999 -17.85714,3.92857 -17.85714,3.92857 0,0 7.36054,4.21929 11.42857,4.28572 5.22819,0.0854 10.01547,-2.77544 13.21428,-1.42857 0,0 5.84946,1.80274 7.85715,3.21428 l 10,11.42857 c 0,0 -3.16512,-10.54267 -8.21429,-16.78571 -1.79981,-2.22537 -3.18238,-0.80829 -8.21428,-2.5 z"
         style="fill:#bcb4aa;fill-opacity:1;stroke:#000000;stroke-width:1px;stroke-linecap:butt;stroke-linejoin:miter;stroke-opacity:1" />
      <path
         id="path3640"
         d="m 796.78571,387.36218 12.67858,1.42857 2.67857,3.21429 -15.35715,-4.64286 z"
         style="fill:#865b39;fill-opacity:1;stroke:none" />
      <path
         id="path3644"
         d="m 782.91795,396.92111 c -4.44068,8.23293 -12.3352,56.19877 -11.59509,64.78967 0.74011,8.59088 0.98681,9.3068 0.98681,9.3068 0,0 -0.74011,-2.86363 6.1676,-25.41473 6.90771,-22.5511 5.18078,-49.39766 4.44068,-48.68174 z"
         style="fill:#e6e6e6;stroke:none" />
      <path
         sodipodi:nodetypes="cscsc"
         style="fill:#e6e6e6;stroke:none"
         d="m 796.84652,420.84968 c -4.44068,8.23293 -6.62091,44.41306 -5.8808,53.00396 0.74011,8.59088 -4.72748,21.09251 -4.72748,21.09251 0,0 11.0456,-12.86363 8.31046,-37.55759 -2.59648,-23.44199 3.03792,-37.2548 2.29782,-36.53888 z"
         id="path3646" />
      <path
         id="path3648"
         d="m 820.59958,401.41883 c -6.29053,6.92315 -17.10893,41.51676 -18.45686,50.03347 -1.34792,8.51669 4.62377,32.19337 4.62377,32.19337 0,0 -0.47036,-22.68641 2.81427,-47.3133 3.11809,-23.37832 11.90939,-35.43043 11.01882,-34.91354 z"
         style="fill:#e6e6e6;stroke:none"
         sodipodi:nodetypes="cscsc" />
      <g
         transform="translate(500,0)"
         id="g3663">
        <path
           style="fill:#b57748;fill-opacity:1;stroke:none"
           d="m 305,378.96932 c 2.7184,-1.86943 5.23008,-4.61738 6.07143,-14.46428 1.66211,2.3275 2.97192,4.43715 3.92857,9.10714 0.95664,4.66999 -1.45312,7.87463 -1.25,12.32143 L 305,378.96932 z"
           id="path3659"
           sodipodi:nodetypes="cczcc" />
        <path
           sodipodi:nodetypes="czcc"
           id="path3661"
           d="m 311.07143,364.50504 c 1.66211,2.3275 2.97192,4.43715 3.92857,9.10714 0.95664,4.66999 -1.45312,7.87463 -1.25,12.32143 L 305,378.96932"
           style="fill:none;stroke:#000000;stroke-width:1px;stroke-linecap:butt;stroke-linejoin:miter;stroke-opacity:1" />
      </g>
      <path
         sodipodi:nodetypes="czcc"
         id="path3667"
         d="m 788.27228,352.55692 c 2.42017,3.0515 2.50435,7.58666 8.08122,10.48033 5.57689,2.89366 8.56526,0.48403 12.87945,0.0631 -8.8746,-1.13242 -15.38977,-7.09845 -20.96067,-10.54346 z"
         style="fill:#875c3b;fill-opacity:1;stroke:none" />
      <path
         style="fill:#875c3b;fill-opacity:1;stroke:none"
         d="m 811.50867,363.86016 c 2.77445,1.91582 3.06935,3.36275 8.53489,4.66303 5.46556,1.30027 7.6835,-1.53827 11.31534,-2.53394 -6.26684,-0.50177 -13.24867,-0.62314 -19.85023,-2.12909 z"
         id="path3669"
         sodipodi:nodetypes="czcc" />
      <path
         transform="translate(501.01015,-1.1364216)"
         d="m 300.89918,360.21829 c 0,1.29013 -1.04585,2.33598 -2.33598,2.33598 -1.29012,0 -2.33598,-1.04585 -2.33598,-2.33598 0,-1.29012 1.04586,-2.33598 2.33598,-2.33598 1.29013,0 2.33598,1.04586 2.33598,2.33598 z"
         sodipodi:ry="2.3359778"
         sodipodi:rx="2.3359778"
         sodipodi:cy="360.21829"
         sodipodi:cx="298.5632"
         id="path3671"
         style="fill:#000000;fill-opacity:1;stroke:none"
         sodipodi:type="arc" />
      <path
         sodipodi:type="arc"
         style="fill:#000000;fill-opacity:1;stroke:none"
         id="path3673"
         sodipodi:cx="298.5632"
         sodipodi:cy="360.21829"
         sodipodi:rx="2.3359778"
         sodipodi:ry="2.3359778"
         d="m 300.89918,360.21829 c 0,1.29013 -1.04585,2.33598 -2.33598,2.33598 -1.29012,0 -2.33598,-1.04585 -2.33598,-2.33598 0,-1.29012 1.04586,-2.33598 2.33598,-2.33598 1.29013,0 2.33598,1.04586 2.33598,2.33598 z"
         transform="translate(522.8547,4.7982246)" />
      <path
         sodipodi:nodetypes="cscsc"
         style="fill:#e6e6e6;stroke:none"
         d="m 759.25328,370.50208 c -6.41495,3.20541 -17.16835,13.82305 -20.49197,19.53722 -3.32359,5.71413 -5.61627,24.29293 -5.61627,24.29293 0,0 8.15652,-13.50848 15.12292,-24.95814 7.95093,-13.06778 5.19915,-4.85256 10.98532,-18.87201 z"
         id="path3675" />
      <path
         sodipodi:nodetypes="cssssccscsscsc"
         id="path3738"
         d="m 496.47933,920.68851 c 0,0 55.87059,-111.385 79.23496,-168.32633 23.49755,-57.26591 46.15846,-115.98563 55.71428,-177.14285 0,0 7.97648,-62.01629 19.28572,-90.71429 12.44487,-31.57973 52.14724,-80.34268 56.18346,-82.97969 17.00645,-11.11097 46.12276,-18.14788 65.95939,-11.30603 0,0 19.4145,13.01935 31.42857,27.14286 -16.85415,-8.97537 -43.98817,-19.36837 -54.44055,-18.17658 -8.57187,0.97736 -11.57355,14.52119 -43.41659,58.17658 -6.432,34.08476 -25.07196,101.80322 -23.57143,153.57143 0,0 4.23322,65.7293 2.85715,98.57143 -2.12657,50.75408 -14.22791,104.60893 -17.14286,151.42857 0,0 -53.20094,2.69312 -78.57143,10 -34.80395,10.02379 -93.52067,49.7549 -93.52067,49.7549 z"
         style="fill:#968d8d;fill-opacity:1;stroke:#000000;stroke-width:1px;stroke-linecap:butt;stroke-linejoin:miter;stroke-opacity:1" />
      <path
         sodipodi:nodetypes="csssscscssscsscc"
         id="path3740"
         d="m 713.6875,413.9687 c -1.36265,1.55997 -3.06964,3.64449 -5.0625,6.15625 -3.98572,5.02351 -9.06973,11.76501 -14.375,19.34375 -10.61054,15.15747 -22.14757,33.55383 -27.8125,48.5 -10.2609,27.07206 -17.09102,83.28234 -17.125,83.5625 -8e-5,7e-4 0,0.0937 0,0.0937 -8.34909,55.47068 -28.17701,108.93031 -48.8125,161.21875 -20.43592,51.78271 -69.59375,153.6875 -69.59375,153.6875 l 7.93163,-7.25524 c 9.42618,-8.62233 44.58147,-91.40413 65.23556,-143.73968 20.6774,-52.39455 36.23051,-108.23123 48.90371,-163.09873 3.44544,-14.91672 9.421,-58.92662 15.04474,-81.3023 5.27823,-13.92589 17.28806,-35.67375 27.75635,-50.62801 5.23415,-7.47713 10.22464,-14.14657 14.125,-19.0625 1.95018,-2.45796 3.6376,-4.4539 4.90625,-5.90625 29.75597,-22.9903 22.45744,-19.43549 -1.12199,-1.56974 z"
         style="font-size:medium;font-style:normal;font-variant:normal;font-weight:normal;font-stretch:normal;text-indent:0;text-align:start;text-decoration:none;line-height:normal;letter-spacing:normal;word-spacing:normal;text-transform:none;direction:ltr;block-progression:tb;writing-mode:lr-tb;text-anchor:start;color:#000000;fill:#786f6f;fill-opacity:1;stroke:none;stroke-width:6;marker:none;visibility:visible;display:inline;overflow:visible;enable-background:accumulate;font-family:Bitstream Vera Sans;-inkscape-font-specification:Bitstream Vera Sans" />
      <path
         id="path4885"
         d="m 713.6875,447.28125 c -1.08493,1.54114 -2.23716,3.11744 -3.40625,4.75 1.17146,-1.63973 2.32229,-3.20459 3.40625,-4.75 z m 45.71875,5.3125 c -8.17083,0.17974 -16.54093,2.91555 -24.75,3.6875 -9.15869,0.86124 -24.08766,2.40842 -28.5625,2.875 -3.30281,18.5282 -5.7269,46.5249 -8.75,76.09375 6.53394,2.26041 13.13943,4.12657 19.78125,5.6875 l 2.28125,0.375 c 30.00932,-8.73344 40.02778,-18.55495 46.84375,-50.34375 -1.46935,-9.76246 -3.19929,-19.5328 -3.03125,-29.3125 0.12492,-2.81039 0.35346,-5.8095 0.625,-8.84375 -1.47341,-0.16789 -2.95028,-0.25147 -4.4375,-0.21875 z m -64.25,57.625 c -0.45657,2.1891 -0.92236,4.39042 -1.375,6.625 0.45258,-2.23086 0.9184,-4.43902 1.375,-6.625 z"
         style="fill:url(#linearGradient3070);fill-opacity:1;stroke:#000000;stroke-width:1px;stroke-linecap:butt;stroke-linejoin:miter;stroke-opacity:1" />
      <path
         sodipodi:nodetypes="csscsscc"
         id="path3767"
         d="m 622.14286,851.6479 c 0,0 18.61001,-60.57737 25.71428,-91.42857 10.5326,-45.73914 23.04602,-91.67594 25,-138.57143 l 1.42857,-34.28572 c 0,0 3.74631,35.18851 4.28572,52.85715 1.0973,35.94273 2.16988,72.15722 -2.14286,107.85714 l -12.85714,106.42857 -41.42857,-2.85714 z"
         style="fill:#645f5e;fill-opacity:1;stroke:none" />
      <path
         sodipodi:nodetypes="csccscsssssssccsssscscscccc"
         id="path3809"
         d="m 750.875,399.09374 c -0.3584,0.015 -0.70461,0.0565 -1.03125,0.0937 -8.57187,0.97736 -11.56321,14.53211 -43.40625,58.1875 -0.10596,0.56151 -0.23131,1.20171 -0.34375,1.78125 4.47484,-0.46658 19.40381,-2.01376 28.5625,-2.875 10.94542,-1.02926 22.18521,-5.53767 32.84375,-2.84375 0,0 21.45211,6.54469 32.5,8.21875 9.96008,1.50923 36.61943,2.49287 46.69848,2.83116 5.03952,0.16914 6.29111,-3.39448 7.18412,-3.38441 0.893,0.0101 1.57282,4.98626 6.46115,3.772 0,0 7.35675,-2.32427 11.16518,-2.77344 3.19376,-0.37667 6.65677,-1.09891 9.64732,0.0837 0,0 6.14622,3.05118 9.46875,3.74442 3.29565,0.68763 10.09375,0.35156 10.09375,0.35156 10.02654,-20.3414 6.85668,-42.97782 -5,-67.125 0,0 -1.65186,0.34627 -4.33631,0.90753 -2.68445,0.56126 -5.6854,0.44125 -7.67473,4.16175 -0.99375,1.85854 -5.84085,1.41658 -8.03529,1.87199 -2.19444,0.45541 -1.69633,4.36806 -7.83369,-1.13664 -1.64869,-1.47873 -1.96486,5.34845 -3.95336,5.75628 -1.98851,-2.80647 -6.37445,-4.2068 -7.82287,-3.34216 -2.7332,1.6316 -3.64172,4.08659 -6.89483,6.19805 -3.43168,-3.42427 -20.10079,-0.22779 -25.60517,0.2082 -8.47429,0.67123 -14.6009,1.89471 -23.34375,-0.875 1.41701,1.4666 2.78129,2.96259 4.0625,4.46875 -16.32746,-8.69489 -42.29599,-18.74667 -53.40625,-18.28125 l 0,5e-5 z"
         style="fill:#e3e3e3;fill-opacity:1;stroke:#000000;stroke-width:1px;stroke-linecap:butt;stroke-linejoin:miter;stroke-opacity:1" />
      <path
         sodipodi:nodetypes="ccccc"
         id="path3814"
         d="m 887.9375,408.90625 -2.66071,-2.20982 c 8.17049,15.88353 10.97782,33.14993 4.96428,49.94643 l -0.13393,3.37946 c 7.17903,-13.48777 6.09593,-35.04772 -2.16964,-51.11607 z"
         style="font-size:medium;font-style:normal;font-variant:normal;font-weight:normal;font-stretch:normal;text-indent:0;text-align:start;text-decoration:none;line-height:normal;letter-spacing:normal;word-spacing:normal;text-transform:none;direction:ltr;block-progression:tb;writing-mode:lr-tb;text-anchor:start;color:#000000;fill:#9f9f9f;fill-opacity:1;stroke:none;stroke-width:1px;marker:none;visibility:visible;display:inline;overflow:visible;enable-background:accumulate;font-family:Bitstream Vera Sans;-inkscape-font-specification:Bitstream Vera Sans" />
      <path
         style="font-size:medium;font-style:normal;font-variant:normal;font-weight:normal;font-stretch:normal;text-indent:0;text-align:start;text-decoration:none;line-height:normal;letter-spacing:normal;word-spacing:normal;text-transform:none;direction:ltr;block-progression:tb;writing-mode:lr-tb;text-anchor:start;color:#000000;fill:#9f9f9f;fill-opacity:1;stroke:none;stroke-width:1px;marker:none;visibility:visible;display:inline;overflow:visible;enable-background:accumulate;font-family:Bitstream Vera Sans;-inkscape-font-specification:Bitstream Vera Sans"
         d="m 877.9375,408.90625 -0.51785,4.75447 c 7.4562,16.59781 8.83496,26.18564 2.82142,42.98214 l -0.13393,3.37946 c 7.17903,-13.48777 6.09593,-35.04772 -2.16964,-51.11607 z"
         id="path3820"
         sodipodi:nodetypes="ccccc" />
      <path
         sodipodi:nodetypes="ccccc"
         id="path3822"
         d="m 871.9375,413.19196 -0.16071,1.54018 c 8.17049,15.88353 8.47782,25.11422 2.46428,41.91072 l -0.13393,3.37946 c 7.17903,-13.48777 8.41736,-31.29772 -2.16964,-46.83036 z"
         style="font-size:medium;font-style:normal;font-variant:normal;font-weight:normal;font-stretch:normal;text-indent:0;text-align:start;text-decoration:none;line-height:normal;letter-spacing:normal;word-spacing:normal;text-transform:none;direction:ltr;block-progression:tb;writing-mode:lr-tb;text-anchor:start;color:#000000;fill:#9f9f9f;fill-opacity:1;stroke:none;stroke-width:1px;marker:none;visibility:visible;display:inline;overflow:visible;enable-background:accumulate;font-family:Bitstream Vera Sans;-inkscape-font-specification:Bitstream Vera Sans" />
      <path
         style="font-size:medium;font-style:normal;font-variant:normal;font-weight:normal;font-stretch:normal;text-indent:0;text-align:start;text-decoration:none;line-height:normal;letter-spacing:normal;word-spacing:normal;text-transform:none;direction:ltr;block-progression:tb;writing-mode:lr-tb;text-anchor:start;color:#000000;fill:#9f9f9f;fill-opacity:1;stroke:none;stroke-width:1px;marker:none;visibility:visible;display:inline;overflow:visible;enable-background:accumulate;font-family:Bitstream Vera Sans;-inkscape-font-specification:Bitstream Vera Sans"
         d="m 869.00893,414.79911 -2.66071,-2.20982 c 8.17049,15.88353 9.90639,27.25707 3.89285,44.05357 l -0.13393,3.37946 c 7.17903,-13.48777 7.16736,-29.15486 -1.09821,-45.22321 z"
         id="path3824"
         sodipodi:nodetypes="ccccc" />
      <path
         sodipodi:nodetypes="ccccc"
         id="path3826"
         d="m 864.47321,411.94196 -0.16071,0.8259 c 8.17049,15.88353 7.94211,27.0785 1.92857,43.875 l -0.13393,3.37946 c 7.17903,-13.48777 6.63164,-32.01201 -1.63393,-48.08036 z"
         style="font-size:medium;font-style:normal;font-variant:normal;font-weight:normal;font-stretch:normal;text-indent:0;text-align:start;text-decoration:none;line-height:normal;letter-spacing:normal;word-spacing:normal;text-transform:none;direction:ltr;block-progression:tb;writing-mode:lr-tb;text-anchor:start;color:#000000;fill:#9f9f9f;fill-opacity:1;stroke:none;stroke-width:1px;marker:none;visibility:visible;display:inline;overflow:visible;enable-background:accumulate;font-family:Bitstream Vera Sans;-inkscape-font-specification:Bitstream Vera Sans" />
      <path
         style="font-size:medium;font-style:normal;font-variant:normal;font-weight:normal;font-stretch:normal;text-indent:0;text-align:start;text-decoration:none;line-height:normal;letter-spacing:normal;word-spacing:normal;text-transform:none;direction:ltr;block-progression:tb;writing-mode:lr-tb;text-anchor:start;color:#000000;fill:#9f9f9f;fill-opacity:1;stroke:none;stroke-width:1px;marker:none;visibility:visible;display:inline;overflow:visible;enable-background:accumulate;font-family:Bitstream Vera Sans;-inkscape-font-specification:Bitstream Vera Sans"
         d="m 853.00893,414.62054 -3.73214,1.54018 c 8.17049,15.88353 10.97782,23.68564 4.96428,40.48214 l -0.13393,3.37946 c 7.17903,-13.48777 7.16736,-29.33343 -1.09821,-45.40178 z"
         id="path3828"
         sodipodi:nodetypes="ccccc" />
      <rect
         transform="matrix(0.99699079,0.07752015,-0.07752015,0.99699079,0,0)"
         y="243.8038"
         x="953.67383"
         height="601.42859"
         width="14.285714"
         id="rect3840"
         style="fill:#5b482d;fill-opacity:1;stroke:none" />
      <path
         sodipodi:nodetypes="csccccsc"
         id="rect3860"
         d="m 944.4375,256.6875 c 0,0 -20.56747,29.98881 -21.875,47.3125 -0.70765,9.37575 3.61907,23.22777 7.71875,34 l -47.75,593.625 14.25,1.09375 47.99908,-593.98284 c 6.06426,-10.30849 13.36588,-21.53324 14.15717,-32.01716 1.30753,-17.32369 -14.5,-50.03125 -14.5,-50.03125 z"
         style="fill:#7b7b7b;fill-opacity:1;stroke:#000000;stroke-width:1" />
      <path
         sodipodi:nodetypes="cscccscssscssccscccc"
         id="path3838"
         d="m 928.125,365.4375 c -1.82635,0.49741 -3.97207,1.1038 -6.84375,1.96875 -13.30761,4.00827 -14.84856,20.06682 -24.4375,34.15625 3.73846,7.97484 6.52643,15.79813 8.15625,23.40625 2.11351,-1.21503 3.75,-2.4375 3.75,-2.4375 10.21769,-3.50321 21.62989,1.40475 32.84375,0.71875 2.19908,-0.13453 4.65625,-2.5 4.65625,-2.5 2.96545,-4.99969 -7.30804,-5.53125 -6.59375,-5.53125 0.71428,0 10.12449,0.80417 12.125,0.53125 2.07095,-0.28252 2.73943,-3.11735 1.96875,-5 -2.1574,-5.27019 -9.53955,-5.56435 -15.71875,-7.3125 5.74091,1.17639 11.31573,3.16539 17.5,2.125 2.08443,-0.35067 2.12322,-4.42169 1.0625,-6.25 -1.45265,-2.50386 -5.38069,-4.01501 -9.125,-4.9375 l 2,0.3125 c 2.8695,0.46117 7.5739,-0.50215 7.6875,-3.40625 0.0512,-1.30988 -3.21875,-2.84375 -3.21875,-2.84375 -2.26968,-1.86914 -5.30187,-2.84873 -8.21875,-3.21875 -8.27368,-0.84314 -16.59339,0.736 -24.8125,-1.25 -1.09383,-2.31972 3.73484,-4.81246 6.25,-5.9375"
         style="fill:#edad80;fill-opacity:1;stroke:#000000;stroke-width:1px;stroke-linecap:butt;stroke-linejoin:miter;stroke-opacity:1" />
      <path
         sodipodi:nodetypes="csssccc"
         id="path3848"
         d="m 923.9484,379.03238 c 0,0 -4.64124,0.57166 -6.12405,2.14657 -1.42476,1.51326 -2.63081,4.13711 -1.70463,5.99778 0.67397,1.35398 2.71766,1.62412 4.23001,1.6415 3.40156,0.0391 9.59645,-3.4724 9.59645,-3.4724 -3.33129,-0.15471 -6.80381,0.16137 -9.65959,-1.57836 -0.093,-2.23518 1.78257,-3.48604 3.66181,-4.73509 z"
         style="fill:#975b31;fill-opacity:1;stroke:none" />
      <path
         sodipodi:nodetypes="cscc"
         id="path3850"
         d="m 910.37447,400.56125 c 0,0 9.49546,-1.20759 14.25493,-1.01015 2.47273,0.10258 7.33708,1.13642 7.33708,1.13642 -5.82481,-0.27084 -13.81931,-0.18007 -21.59201,-0.12627 z"
         style="fill:#be723e;fill-opacity:1;stroke:none" />
      <path
         sodipodi:nodetypes="cscsc"
         id="rect3871"
         d="m 943.78733,275.88328 c 0,0 4.94391,8.14353 4.58697,12.59841 -0.36685,4.57863 -6.71592,12.03253 -6.71592,12.03253 0,0 -4.9439,-8.14353 -4.58697,-12.59841 0.36685,-4.57863 6.71592,-12.03253 6.71592,-12.03253 z"
         style="fill:#575757;fill-opacity:1;stroke:none" />
      <path
         sodipodi:nodetypes="cscsc"
         id="rect3873"
         d="m 951.21089,293.84349 c 0,0 4.94391,8.14352 4.58697,12.5984 -0.36685,4.57863 -6.71592,12.03253 -6.71592,12.03253 0,0 -4.9439,-8.14352 -4.58697,-12.5984 0.36686,-4.57863 6.71592,-12.03253 6.71592,-12.03253 z"
         style="fill:#575757;fill-opacity:1;stroke:none" />
      <path
         sodipodi:nodetypes="cscsc"
         id="rect3875"
         d="m 940.91366,307.97216 c 0,0 4.94391,8.14352 4.58697,12.5984 -0.36685,4.57863 -6.71592,12.03253 -6.71592,12.03253 0,0 -4.9439,-8.14352 -4.58697,-12.5984 0.36686,-4.57863 6.71592,-12.03253 6.71592,-12.03253 z"
         style="fill:#575757;fill-opacity:1;stroke:none" />
      <path
         sodipodi:nodetypes="cscsc"
         id="rect3877"
         d="m 934.44798,291.44876 c 0,0 4.94391,8.14353 4.58697,12.59841 -0.36685,4.57863 -6.71592,12.03253 -6.71592,12.03253 0,0 -4.94391,-8.14352 -4.58697,-12.59841 0.36685,-4.57862 6.71592,-12.03253 6.71592,-12.03253 z"
         style="fill:#575757;fill-opacity:1;stroke:none" />
      <path
         id="path3891"
         d="m 814.1875,462.75 c -1.74932,9.07426 -3.15156,17.85014 -4.71875,26.9375 7.56932,18.59009 16.96291,38.51937 21.78125,45.28125 3.83598,5.38328 6.18691,20.13132 12.75,19.34375 0,0 2.58719,7.0794 6.5,5.5625 1.33678,-0.51824 7.80427,-2.25842 9.15625,-1.78125 0,0 6.90269,0.79502 9.90625,0.875 5.90459,0.15722 6.85746,1.44635 9.9375,-3.59375 0,0 10.9082,-20.81041 19.6875,-26.65625 C 902.83682,526.28879 909,526.375 909,526.375 c 1.22509,-11.88672 -2.49933,-27.52823 -20.5,-54 0,0 -7.08693,7.91855 -11,11.5 -2.36171,2.16156 -4.70133,7.55482 -7.5,6 0,0 -3.555,0.48275 -5.25,0.75 -3.37798,0.53261 -3.51423,6.30183 -6.25,4.25 0,0 -5.67054,-3.61573 -8,-6 -4.83575,-4.94952 -10.66139,-15.65338 -7.5625,-24.5 -5.23672,-0.18594 -17.49659,-0.91994 -28.75,-1.625 z"
         style="fill:#b4b4b4;fill-opacity:1;stroke:#000000;stroke-width:1px;stroke-linecap:butt;stroke-linejoin:miter;stroke-opacity:1" />
      <path
         style="font-size:medium;font-style:normal;font-variant:normal;font-weight:normal;font-stretch:normal;text-indent:0;text-align:start;text-decoration:none;line-height:normal;letter-spacing:normal;word-spacing:normal;text-transform:none;direction:ltr;block-progression:tb;writing-mode:lr-tb;text-anchor:start;color:#000000;fill:#9f9f9f;fill-opacity:1;stroke:none;stroke-width:1px;marker:none;visibility:visible;display:inline;overflow:visible;enable-background:accumulate;font-family:Bitstream Vera Sans;-inkscape-font-specification:Bitstream Vera Sans"
         d="m 875.19839,494.86743 -2.41542,-0.45417 c 10.55751,7.04546 18.26115,16.80108 20.3237,29.30957 l 1.08332,2.14531 c -0.19655,-10.85565 -8.31124,-23.87328 -18.9916,-31.00071 z"
         id="path3960"
         sodipodi:nodetypes="ccccc" />
      <path
         sodipodi:nodetypes="ccccc"
         id="path3962"
         d="m 869.67042,495.54199 0.96881,3.89728 c 10.68371,10.92238 14.5472,18.07986 14.67207,33.0599 l 0.87319,2.70235 c 1.75198,-12.70975 -5.34579,-29.38886 -16.51407,-39.65953 z"
         style="font-size:medium;font-style:normal;font-variant:normal;font-weight:normal;font-stretch:normal;text-indent:0;text-align:start;text-decoration:none;line-height:normal;letter-spacing:normal;word-spacing:normal;text-transform:none;direction:ltr;block-progression:tb;writing-mode:lr-tb;text-anchor:start;color:#000000;fill:#9f9f9f;fill-opacity:1;stroke:none;stroke-width:1px;marker:none;visibility:visible;display:inline;overflow:visible;enable-background:accumulate;font-family:Bitstream Vera Sans;-inkscape-font-specification:Bitstream Vera Sans" />
      <path
         style="font-size:medium;font-style:normal;font-variant:normal;font-weight:normal;font-stretch:normal;text-indent:0;text-align:start;text-decoration:none;line-height:normal;letter-spacing:normal;word-spacing:normal;text-transform:none;direction:ltr;block-progression:tb;writing-mode:lr-tb;text-anchor:start;color:#000000;fill:#9f9f9f;fill-opacity:1;stroke:none;stroke-width:1px;marker:none;visibility:visible;display:inline;overflow:visible;enable-background:accumulate;font-family:Bitstream Vera Sans;-inkscape-font-specification:Bitstream Vera Sans"
         d="m 865.53637,496.56611 -1.01315,3.71624 c 13.34877,15.68836 17.35713,24.02815 15.01863,44.46921 l 0.73774,3.82999 c 4.51674,-17.03199 1.22684,-37.35614 -14.74322,-52.01544 z"
         id="path3964"
         sodipodi:nodetypes="ccccc" />
      <path
         sodipodi:nodetypes="cccccc"
         id="path3966"
         d="m 862.82222,501.69088 -3.36987,-2.46644 c 11.02065,18.5378 14.66049,34.94455 6.8872,57.92918 l 1.14906,-1.04391 c 7.65467,-16.78524 6.48248,-35.66531 -4.66641,-54.41883 l 2e-5,0 z"
         style="font-size:medium;font-style:normal;font-variant:normal;font-weight:normal;font-stretch:normal;text-indent:0;text-align:start;text-decoration:none;line-height:normal;letter-spacing:normal;word-spacing:normal;text-transform:none;direction:ltr;block-progression:tb;writing-mode:lr-tb;text-anchor:start;color:#000000;fill:#9f9f9f;fill-opacity:1;stroke:none;stroke-width:1px;marker:none;visibility:visible;display:inline;overflow:visible;enable-background:accumulate;font-family:Bitstream Vera Sans;-inkscape-font-specification:Bitstream Vera Sans" />
      <path
         style="font-size:medium;font-style:normal;font-variant:normal;font-weight:normal;font-stretch:normal;text-indent:0;text-align:start;text-decoration:none;line-height:normal;letter-spacing:normal;word-spacing:normal;text-transform:none;direction:ltr;block-progression:tb;writing-mode:lr-tb;text-anchor:start;color:#000000;fill:#9f9f9f;fill-opacity:1;stroke:none;stroke-width:1px;marker:none;visibility:visible;display:inline;overflow:visible;enable-background:accumulate;font-family:Bitstream Vera Sans;-inkscape-font-specification:Bitstream Vera Sans"
         d="m 863.17251,502.61913 -2.65307,-3.22499 c 6.07998,20.69151 7.14532,33.86588 -3.80196,52.41733 l -2.51765,4.68414 c 11.57759,-14.36306 15.12339,-32.94419 8.97266,-53.87648 l 2e-5,0 z"
         id="path3992"
         sodipodi:nodetypes="cccccc" />
      <path
         sodipodi:nodetypes="cccccc"
         id="path3994"
         d="m 862.25111,503.33637 -1.60471,-3.85542 c -0.17684,21.56557 -4.87927,36.46689 -20.73265,51.05008 l -1.86258,1.7701 c 15.24294,-10.39186 24.02102,-27.14825 24.19992,-48.96476 l 2e-5,0 z"
         style="font-size:medium;font-style:normal;font-variant:normal;font-weight:normal;font-stretch:normal;text-indent:0;text-align:start;text-decoration:none;line-height:normal;letter-spacing:normal;word-spacing:normal;text-transform:none;direction:ltr;block-progression:tb;writing-mode:lr-tb;text-anchor:start;color:#000000;fill:#9f9f9f;fill-opacity:1;stroke:none;stroke-width:1px;marker:none;visibility:visible;display:inline;overflow:visible;enable-background:accumulate;font-family:Bitstream Vera Sans;-inkscape-font-specification:Bitstream Vera Sans" />
      <path
         id="path4002"
         d="m 923.03125,428.09375 c -1.08201,0.3741 -2.07163,0.72885 -2.28125,0.78125 -1,0.25 -9.54498,2.73803 -12.75,6.75 -0.47603,0.59588 -0.91404,1.24338 -1.34375,1.90625 0.41753,10.00261 -1.42933,19.60403 -5.9375,28.75 0,0 -3.51532,0.15904 -6.71875,0 -1.6499,2.44015 -3.53828,5.09879 -4.46875,7.625 5.74468,8.58013 9.94921,16.01847 12.96875,22.53125 1.86505,-2.72219 3.99509,-6.12692 6,-7.3125 2.72925,-1.61392 9.0934,-8.19674 10.46875,-8.65625 l 2.71875,-35.65625 c -2.41313,0.99477 -4.94687,2.04361 -6.6875,0.5625 -1.5232,-1.29609 -0.79157,-4.85081 0.75,-6.125 2.99709,-2.47727 4.80614,-2.40674 6.625,-2.84375 l 0.65625,-8.3125 z m 15.1875,11.46875 c -0.50474,-3.2e-4 -1.03956,0.024 -1.59375,0.0937 L 935,459.71875 c 3.05839,-0.33558 14.63362,-1.74995 15.375,-4.46875 0.52575,-1.92801 -0.72183,-4.68493 -3.625,-6.375 -1.90304,-1.10785 -5.76514,-0.44979 -8.75,0.34375 3.7012,-1.30772 8.61913,-3.41402 8.5,-5.34375 -0.22639,-3.66713 -4.47129,-3.89503 -7.25,-4.25 -0.32218,-0.0412 -0.67597,-0.0623 -1.03125,-0.0625 z m 2.5,19.875 c -0.63215,-0.008 -1.24851,0.0143 -1.84375,0.0312 -1.61494,0.0459 -2.94306,0.1882 -3.875,0.28125 l -1.4375,17.90625 c 0.23972,-0.0111 0.6875,-0.0312 0.6875,-0.0312 3.847,-0.51293 11.39926,-0.01 11.75,-3.875 0.21414,-2.35986 -2.88807,-3.75904 -6.25,-4.5625 4.43651,0.21441 11.25223,-1.80123 10.75,-5.8125 -0.38752,-3.09516 -5.35622,-3.88327 -9.78125,-3.9375 z"
         style="fill:#e69d6a;fill-opacity:1;stroke:#000000;stroke-width:1px;stroke-linecap:butt;stroke-linejoin:miter;stroke-opacity:1" />
      <path
         id="path4004"
         d="m 914.25,451.5 c 0,0 -0.32057,9.15184 -2.25,13.125 -2.12341,4.3726 -9.25,9.25 -9.25,9.25 0,0 7.56384,-4.34851 11.625,-4.625 1.52109,-0.10356 3.63407,0.51025 5.25,1.09375 l 0.0625,-0.6875 c -1.51128,-1.19074 -3.35949,-2.86829 -4.0625,-4.53125 -1.58782,-3.75597 -1.375,-13.625 -1.375,-13.625 z"
         style="fill:#66462c;fill-opacity:1;stroke:none" />
      <path
         sodipodi:nodetypes="cssc"
         id="path4018"
         d="m 938.05265,439.83093 c 0,0 -13.27869,2.85128 -14.84924,6.36396 -0.77003,1.72223 3.60204,3.7144 5.48008,3.53554 l 11.13693,-1.06066"
         style="fill:#e69d6a;fill-opacity:1;stroke:#000000;stroke-width:1px;stroke-linecap:butt;stroke-linejoin:miter;stroke-opacity:1" />
      <path
         sodipodi:nodetypes="cssc"
         style="fill:#e69d6a;fill-opacity:1;stroke:#000000;stroke-width:1px;stroke-linecap:butt;stroke-linejoin:miter;stroke-opacity:1"
         d="m 938.05265,449.83093 c 0,0 -12.04125,2.14417 -13.61181,5.65685 -0.77003,1.72224 2.53899,4.21752 4.41943,4.06587 l 10.96015,-0.88388"
         id="path4020" />
      <path
         sodipodi:nodetypes="cssc"
         id="path4022"
         d="m 938.05265,459.83093 c 0,0 -10.27349,2.14417 -11.84404,5.65685 -0.77003,1.72224 1.12803,4.43036 3.00521,4.24265 l 10.6066,-1.06066"
         style="fill:#e69d6a;fill-opacity:1;stroke:#000000;stroke-width:1px;stroke-linecap:butt;stroke-linejoin:miter;stroke-opacity:1" />
      <path
         sodipodi:nodetypes="cssc"
         style="fill:#e69d6a;fill-opacity:1;stroke:#000000;stroke-width:1px;stroke-linecap:butt;stroke-linejoin:miter;stroke-opacity:1"
         d="m 939.64364,469.5987 c 0,0 -7.69671,-0.0521 -9.72272,3.53553 -0.92767,1.6427 0.58888,3.75722 2.47488,3.71231 l 7.42462,-0.17677"
         id="path4024" />
      <path
         sodipodi:nodetypes="csscc"
         id="path4026"
         d="m 928.5951,443.98518 c 0,0 -3.30655,0.68473 -3.62392,2.03294 -0.2041,0.86703 0.61187,2.20971 1.5026,2.20971 l 3.71231,0 -1.59099,-4.24265 z"
         style="fill:#f2cdb3;fill-opacity:1;stroke:#331d0e;stroke-width:0.25;stroke-linecap:butt;stroke-linejoin:miter;stroke-opacity:1" />
      <path
         style="fill:#f2cdb3;fill-opacity:1;stroke:#331d0e;stroke-width:0.25;stroke-opacity:1"
         d="m 930.18609,453.88467 c 0,0 -3.30655,0.68473 -3.62392,2.03294 -0.2041,0.86703 0.61187,2.20971 1.5026,2.20971 l 3.71231,0 -1.59099,-4.24265 z"
         id="path4028"
         sodipodi:nodetypes="csscc" />
      <path
         sodipodi:nodetypes="csscc"
         id="path4030"
         d="m 930.8932,463.78416 c 0,0 -3.30655,0.68473 -3.62392,2.03294 -0.2041,0.86703 0.61187,2.20971 1.5026,2.20971 l 3.71231,0 -1.59099,-4.24265 z"
         style="fill:#f2cdb3;fill-opacity:1;stroke:#331d0e;stroke-width:0.25;stroke-opacity:1" />
      <path
         style="fill:#f2cdb3;fill-opacity:1;stroke:#331d0e;stroke-width:0.25;stroke-opacity:1"
         d="m 933.90127,472.0081 c 0,0 -2.7495,0.56937 -3.0134,1.69045 -0.16972,0.72096 0.50879,1.83744 1.24946,1.83744 l 3.0869,0 -1.32296,-3.52789 z"
         id="path4032"
         sodipodi:nodetypes="csscc" />
      <path
         id="path4060"
         d="m 697.3125,535.25 c -0.2416,2.36158 -0.46873,4.71596 -0.71875,7.09375 28.52426,11.27496 58.00104,11.35892 87.3125,13.1875 0.25315,-3.04685 1.19371,-5.84335 3.1875,-8.0625 l 0.15625,-0.1875 c -30.70556,0.71954 -60.8895,-1.97662 -89.9375,-12.03125 z"
         style="fill:#37241b;fill-opacity:1;stroke:#000000;stroke-width:1px;stroke-linecap:butt;stroke-linejoin:miter;stroke-opacity:1" />
      <path
         id="path4057"
         d="m 695.3125,554.25 c -0.26355,2.35292 -0.53688,4.71454 -0.8125,7.0625 22.42865,8.86399 45.41126,10.80717 68.46875,12.125 l 1.125,0.0312 0,0.0312 c 7.97471,0.44921 15.97388,0.85531 23.9375,1.4375 -0.0809,-0.19976 -0.1728,-0.39172 -0.25,-0.59375 -0.94442,-2.47152 -1.9127,-5.24011 -2.65625,-8.09375 -30.6609,0.71811 -60.80354,-1.98051 -89.8125,-12 z"
         style="fill:#37241b;fill-opacity:1;stroke:#000000;stroke-width:1px;stroke-linecap:butt;stroke-linejoin:miter;stroke-opacity:1" />
      <path
         id="path4063"
         d="m 722.96875,627.46875 c -11.37806,-0.0154 -23.36229,2.90265 -37.5625,8.4375 -0.2888,7.7464 -0.41284,16.59275 -0.0937,25.78125 0,0 14.74724,-12.09325 31.75,-12.375 17.70375,-0.29337 31.84375,9.1875 31.84375,9.1875 0,0 -1.36051,-12.30417 -1.78125,-26.375 -8.16919,-3.11044 -16.00422,-4.64519 -24.15625,-4.65625 z"
         style="fill:#4a413b;fill-opacity:1;stroke:#000000;stroke-width:1px;stroke-linecap:butt;stroke-linejoin:miter;stroke-opacity:1" />
      <path
         id="path4068"
         d="m 825.78125,620.71875 c -7.49394,5.15811 -19.31353,12.38458 -35.0625,18.53125 1.65547,2.168 3.30049,4.34099 4.84375,6.53125 2.79802,3.97104 9.1875,11.3125 9.1875,11.3125 16.49232,-3.77988 27.35263,-10.37577 32.53125,-19.8125 l -11.5,-16.5625 z"
         style="fill:#4a413b;fill-opacity:1;stroke:#000000;stroke-width:1px;stroke-linecap:butt;stroke-linejoin:miter;stroke-opacity:1" />
      <path
         sodipodi:nodetypes="cscscscsssccccsccccccc"
         id="path4073"
         d="m 761.53125,573.40625 c -3.39354,6.22792 -11.35543,22.31793 -12.625,27.8125 -4.29853,18.6036 0,57.28125 0,57.28125 0,0 -14.14,-9.48087 -31.84375,-9.1875 -17.00276,0.28175 -31.75,12.375 -31.75,12.375 0.59196,17.04591 0.94584,34.93422 0.40625,47.8125 -0.17013,4.0604 -0.3995,8.1551 -0.6875,12.25 24.48695,-10.67446 28.92122,-8.33246 40.54602,-8.43626 8.50445,-0.0759 26.55861,6.50539 43.8994,4.25382 17.34078,-2.25157 33.96818,-13.33604 46.69018,-17.63091 C 846.40641,689.72797 867,700.21875 867,700.21875 l -27.59375,-45.25 -4.625,-13.9375 c -5.81664,7.45122 -15.82434,12.80641 -30.03125,16.0625 0,0 -6.38948,-7.34146 -9.1875,-11.3125 -8.89244,-12.62047 -20.61354,-24.53815 -24.03125,-39.59375 l -7.4375,-32.71875 -2.5625,-0.0625 z M 685.125,652.46875 685,652.75 c 0.10351,2.5587 0.18775,5.11998 0.28125,7.75 -0.0839,-2.70921 -0.14032,-5.39912 -0.15625,-8.03125 z"
         style="fill:#8b8780;fill-opacity:1;stroke:#000000;stroke-width:1px;stroke-linecap:butt;stroke-linejoin:miter;stroke-opacity:1" />
      <path
         sodipodi:nodetypes="cssssccsscc"
         id="path4082"
         d="m 845.6875,677.59375 c -8.30246,-0.37498 -18.57111,0.52643 -30.15625,4.4375 -13.2097,4.45951 -29.64101,15.39783 -46.3125,17.5625 -8.33575,1.08233 -16.9886,0.0285 -24.65625,-1.3125 -7.66765,-1.341 -14.2193,-3.01142 -19,-2.96875 -11.35167,0.10136 -19.85947,1.0231 -30.73715,6.47243 12.37119,-1.89845 23.13914,-3.82624 30.7684,-2.47243 3.72375,-0.0332 10.46051,1.53847 18.28125,2.90625 7.82074,1.36778 16.83871,2.51299 25.84375,1.34375 18.01007,-2.33847 34.85945,-13.58852 47.09375,-17.71875 12.98603,-5.98411 20.21837,-6.59452 28.875,-8.25 z"
         style="font-size:medium;font-style:normal;font-variant:normal;font-weight:normal;font-stretch:normal;text-indent:0;text-align:start;text-decoration:none;line-height:normal;letter-spacing:normal;word-spacing:normal;text-transform:none;direction:ltr;block-progression:tb;writing-mode:lr-tb;text-anchor:start;color:#000000;fill:#3b3936;fill-opacity:1;fill-rule:nonzero;stroke:none;stroke-width:4;marker:none;visibility:visible;display:inline;overflow:visible;enable-background:accumulate;font-family:Bitstream Vera Sans;-inkscape-font-specification:Bitstream Vera Sans" />
      <path
         style="font-size:medium;font-style:normal;font-variant:normal;font-weight:normal;font-stretch:normal;text-indent:0;text-align:start;text-decoration:none;line-height:normal;letter-spacing:normal;word-spacing:normal;text-transform:none;direction:ltr;block-progression:tb;writing-mode:lr-tb;text-anchor:start;color:#000000;fill:#3b3936;fill-opacity:1;fill-rule:nonzero;stroke:none;stroke-width:4;marker:none;visibility:visible;display:inline;overflow:visible;enable-background:accumulate;font-family:Bitstream Vera Sans;-inkscape-font-specification:Bitstream Vera Sans"
         d="m 830.13115,663.71507 c -8.30246,-0.37498 -15.03558,2.64775 -26.62072,6.55882 -13.2097,4.45951 -17.62019,11.15519 -34.29168,13.31986 -8.33575,1.08233 -16.9886,0.0285 -24.65625,-1.3125 -7.66765,-1.341 -14.2193,-3.01142 -19,-2.96875 -11.35167,0.10136 -19.85947,1.0231 -30.73715,6.47243 14.52109,-2.44213 28.55208,-6.73282 49.4032,-1.33395 7.82074,1.36778 15.77805,2.86655 24.78309,1.69731 18.01007,-2.33847 24.6064,-8.99233 36.8407,-13.12256 12.98603,-5.98411 15.62218,-7.65518 24.27881,-9.31066 z"
         id="path4090"
         sodipodi:nodetypes="cssssccscc" />
      <path
         sodipodi:nodetypes="csssccscc"
         id="path4092"
         d="m 789.3683,659.31373 c -5.43153,1.98464 -9.84202,5.14479 -20.85665,8.01656 -8.13381,2.12068 -17.69571,1.79627 -25.36336,0.45527 -7.66765,-1.341 -14.2193,-3.01142 -19,-2.96875 -11.35167,0.10136 -15.61683,-0.39111 -26.49451,5.05822 14.52109,-2.44213 24.30944,-5.31861 45.16056,0.0803 7.82074,1.36778 15.70636,1.96354 24.78309,1.69731 7.40347,-0.21715 15.41401,-5.4568 28.70897,-10.64769 7.81665,-9.62869 0.79439,-7.36154 -6.9381,-1.69118 z"
         style="font-size:medium;font-style:normal;font-variant:normal;font-weight:normal;font-stretch:normal;text-indent:0;text-align:start;text-decoration:none;line-height:normal;letter-spacing:normal;word-spacing:normal;text-transform:none;direction:ltr;block-progression:tb;writing-mode:lr-tb;text-anchor:start;color:#000000;fill:#3b3936;fill-opacity:1;fill-rule:nonzero;stroke:none;stroke-width:4;marker:none;visibility:visible;display:inline;overflow:visible;enable-background:accumulate;font-family:Bitstream Vera Sans;-inkscape-font-specification:Bitstream Vera Sans" />
      <path
         sodipodi:nodetypes="cccccc"
         id="path4094"
         d="m 684.55487,766.69104 -0.70711,37.47666 c 18.234,0.96533 30.78269,9.8901 39.59798,24.04163 8.79724,-12.02427 19.9643,-20.49382 32.52691,-26.87005 l 5.65686,-31.1127 c -33.84328,5.80868 -56.24979,1.81443 -77.07464,-3.53554 z"
         style="fill:#443732;fill-opacity:1;stroke:#000000;stroke-width:1px;stroke-linecap:butt;stroke-linejoin:miter;stroke-opacity:1" />
      <path
         sodipodi:nodetypes="cccssssssssssssssssssssc"
         id="path4096"
         d="m 751.4375,803.78125 c -10.71357,6.06496 -20.27881,13.88399 -28,24.4375 -8.58349,-13.77941 -20.72279,-22.59181 -38.1875,-23.9375 0,0 2.53522,8.98528 2.56472,13.59766 0.0294,4.60165 -3.41106,9.11175 -2.38503,13.59765 0,0 3.33873,9.41384 3.27182,14.30477 -0.0823,6.01879 -6.27007,11.73158 -4.50635,17.48674 0,0 3.39675,7.71192 3.62538,11.82989 0.2025,3.64744 -2.58641,7.15857 -2.03148,10.76923 0,0 2.06019,9.01198 2.08985,13.59765 0.0296,4.57696 0.0813,9.47655 -1.91016,13.59766 0,0 -10.19285,13.87877 -11.32046,21.38388 -0.46032,3.06378 -0.73079,11.31765 2.11335,12.54626 0,0 11.18922,4.94003 20.53065,6.71631 12.74457,2.42339 35.56095,2.98007 45.23896,0.35355 0,0 10.0427,-3.43883 12.03125,-7.78125 2.87234,-6.27237 -0.99463,-13.17995 -5.31862,-18.55546 l -13.94026,-17.33026 c -3.86371,-4.8033 -3.01312,-11.42836 -1.24112,-18.5475 0.61548,-2.47272 5.07449,-8.11945 4.5723,-10.61764 0,0 -3.86154,-9.40657 -3.42845,-14.58931 0.47558,-5.69114 3.8986,-10.74125 6.11749,-16.00354 0,0 6.60138,-12.663 8.23881,-19.53906 2.11437,-8.87888 1.87485,-27.31723 1.87485,-27.31723 z"
         style="fill:#372424;fill-opacity:1;stroke:#000000;stroke-width:1px;stroke-linecap:butt;stroke-linejoin:miter;stroke-opacity:1" />
      <path
         sodipodi:nodetypes="ccscscc"
         id="rect4101"
         d="m 680.90029,933.50444 c -0.389,2.5891 -0.63413,9.5779 1.76936,10.61616 0,0 9.45616,4.17672 17.3503,5.6778 10.77003,2.04793 30.06074,2.51008 38.23932,0.29049 0,0 8.48676,-2.90604 10.16722,-6.57568 2.42732,-5.30058 -0.83536,-11.1439 -4.48942,-15.68657 -11.44787,-10.42713 -49.98716,-22.03942 -63.03678,5.6778 z"
         style="fill:#1d1313;fill-opacity:1;stroke:none" />
      <path
         sodipodi:nodetypes="cccccc"
         id="path4106"
         d="m 793.09576,752.90246 -1.76777,36.06245 c 17.46531,2.84948 33.87265,-5.93873 53.03301,15.55635 1.91595,-11.74467 7.64648,-18.40324 15.2028,-22.62742 l 5.65685,-36.416 c -27.20542,13.54815 -48.26422,5.5831 -72.12489,7.42462 z"
         style="fill:#443732;fill-opacity:1;stroke:#000000;stroke-width:1px;stroke-linecap:butt;stroke-linejoin:miter;stroke-opacity:1" />
      <path
         sodipodi:nodetypes="cccsssssssssssssssssssssc"
         id="path4108"
         d="m 856.06251,784.15625 c -5.79374,4.25917 -10.08176,10.53184 -11.68751,20.375 -18.41125,-20.65469 -34.29142,-13.35602 -51,-15.28125 l -1.89277,12.69141 c -0.62922,4.21909 1.77512,8.42769 1.64277,12.6914 -0.12251,3.94666 -2.50536,7.69069 -2.24632,11.63075 0.30888,4.69814 3.98029,8.71589 4.47119,13.39851 0.69126,6.59378 -0.75321,13.30288 -2.24632,19.76248 -0.50404,2.18062 -2.39042,4.09397 -2.24632,6.32744 0.21189,3.28411 5.06049,5.56457 4.4712,8.80232 l -2.95343,16.22694 c -1.56664,8.60756 -5.81906,21.10484 -5.10631,24.93842 0.92641,4.98278 6.46617,8.03541 11.82506,8.31158 1.87275,0.0965 56.07594,1.20528 72.84375,0.34375 4.79468,-0.24635 7.51821,-8.53912 6,-13.09375 0,0 -1.73425,-10.51521 -6.0098,-14.67065 -5.55574,-5.39967 -15.39111,-4.80934 -21.89645,-9.01685 0,0 -10.47848,-3.97666 -13.09375,-8.46875 -3.08686,-5.30211 -0.76118,-12.24717 -1.0625,-18.375 0,0 -2.06602,-9.85697 -0.71323,-14.50492 1.48284,-5.09477 7.67581,-7.9115 9.19193,-12.99647 0.93537,-3.13715 -1.24001,-6.66304 -0.354,-9.81449 1.21442,-4.31957 5.48679,-7.18146 7.42417,-11.2287 2.17695,-4.54773 3.81273,-9.42994 4.59574,-14.41069 0.70602,-4.49102 0.0429,-13.63848 0.0429,-13.63848 z"
         style="fill:#372424;fill-opacity:1;stroke:#000000;stroke-width:1px;stroke-linecap:butt;stroke-linejoin:miter;stroke-opacity:1" />
      <path
         sodipodi:nodetypes="csscscc"
         id="rect4113"
         d="m 792.20296,913.86194 c 0.8262,4.44377 5.75551,7.16701 10.53471,7.41331 1.67017,0.0861 50.01004,1.0749 64.96403,0.30656 4.27602,-0.2197 6.70494,-7.61541 5.35096,-11.67736 0,0 -1.53791,-9.3649 -5.35096,-13.07084 -4.95476,-4.81557 -13.73495,-4.30194 -19.53659,-8.05431 -35.80563,-19.61856 -62.57254,0.84508 -55.96215,25.08264 z"
         style="fill:#1d1313;fill-opacity:1;stroke:none" />
      <path
         id="path4118"
         d="m 715.96875,713.15625 c -6.04207,0.0525 -12.61095,1.05915 -26.0625,6.5625 -1.48204,3.4483 -2.84636,7.31579 -2.875,10.1875 -0.0249,2.4971 3.089,4.67478 2.46875,7.09375 0,0 -3.73444,9.04072 -3.53125,13.78125 0.10694,2.49493 2.57722,4.56764 2.46875,7.0625 0,0 -0.28481,5.4125 -0.34375,8.125 -0.009,0.43224 0.004,1.08673 0,1.625 19.56848,4.80933 41.01462,8.00783 72.21875,2.84375 1.24873,-1.39833 2.57286,-3.1001 3.09375,-4.46875 0.79757,-2.09563 0.22891,-4.44817 0.34375,-6.6875 0,0 -1.63455,-9.85744 0.71875,-13.8125 1.27123,-2.13648 5.68168,-4.60889 5.28125,-7.0625 -0.78664,-4.82009 -4.48688,-5.68463 -4.9375,-10.96875 -0.26527,-3.11063 1.04397,-6.93826 2.21875,-9.65625 -16.57068,1.38969 -33.3627,-4.54109 -41.46875,-4.46875 -3.63275,0.0324 -6.534,-0.18286 -9.59375,-0.15625 z"
         style="fill:#262523;fill-opacity:1;stroke:#000000;stroke-width:1px;stroke-linecap:butt;stroke-linejoin:miter;stroke-opacity:1" />
      <path
         sodipodi:nodetypes="cscssssccssssscc"
         id="path4126"
         d="m 841.34375,695.46875 c -7.23179,0.0992 -15.73764,1.27854 -25.1875,4.46875 -10.19552,3.44195 -22.89966,11.22153 -36.46875,15.34375 0,0 1.41294,3.14119 3.84803,5.43506 2.92037,2.75101 7.78861,4.83658 7.78861,8.84863 0,0 -0.54759,4.76598 0.70711,9.18506 0.79589,2.80313 4.20315,4.54987 4.59375,7.4375 l 0.875,6.46875 c 21.5479,-0.68169 41.23245,5.23172 65.875,-6.28125 0,0 2.77699,-4.68461 3.625,-7.25 1.05242,-3.18378 -1.16197,-8.24358 1.75,-9.90625 0,0 5.61866,-2.2283 6.01716,-6.0098 0.4639,-4.40213 -7.30404,-4.25488 -6.01716,-8.4902 0,0 3.07928,-5.36103 2.46875,-8.125 -0.71443,-3.23435 -6.625,-7.40625 -6.625,-7.40625 -3.80162,-1.43742 -11.96693,-3.87352 -23.25,-3.71875 z"
         style="fill:#262523;fill-opacity:1;stroke:#000000;stroke-width:1px;stroke-linecap:butt;stroke-linejoin:miter;stroke-opacity:1" />
      <path
         sodipodi:nodetypes="csssss"
         id="path4243"
         d="m 700,720.36218 c 0,0 -3.14708,7.16842 -3.5,11 -0.36973,4.01414 2.22111,8.03389 1.5,12 0,0 -1.48084,7.30956 -2,11 -0.46667,3.31729 -4.23192,9.11857 -1,10 l 5.5,1.5"
         style="fill:none;stroke:#000000;stroke-width:1px;stroke-linecap:butt;stroke-linejoin:miter;stroke-opacity:1" />
      <path
         sodipodi:nodetypes="csssss"
         id="path4245"
         d="m 755.5,723.36218 c 0,0 -0.0811,7.33772 1.5,10.5 0.94868,1.89737 5.70179,2.75194 4.5,4.5 0,0 -4.68789,4.86748 -5.5,8 -0.88232,3.40333 2.40921,7.27894 1,10.5 l -3.5,8"
         style="fill:none;stroke:#000000;stroke-width:1px;stroke-linecap:butt;stroke-linejoin:miter;stroke-opacity:1" />
      <path
         sodipodi:nodetypes="csssssss"
         id="path4247"
         d="m 710.5,724.86218 c 0,0 0.77824,10.72944 3,15.5 1.90113,4.08209 8.5,15.00309 8.5,10.5 0,0 0.038,-4.38005 3,-5.5 3.53439,-1.33637 3.16052,6.26796 6.5,4.5 0,0 2.28411,-3.18319 4.5,-5.5 2.42191,-2.53222 5.61552,-5.1095 6.5,-8.5 l 3,-11.5"
         style="fill:none;stroke:#000000;stroke-width:1px;stroke-linecap:butt;stroke-linejoin:miter;stroke-opacity:1" />
      <path
         sodipodi:nodetypes="csss"
         id="path4249"
         d="m 714,748.61218 c 0,0 -3.37936,4.60479 -3.25,7.25 0.0656,1.34211 2.50877,2.25633 2,3.5 l -2.25,5.5"
         style="fill:none;stroke:#000000;stroke-width:1px;stroke-linecap:butt;stroke-linejoin:miter;stroke-opacity:1" />
      <path
         sodipodi:nodetypes="cssss"
         id="path4251"
         d="m 736.75,748.86218 0.5,4.5 c 0.0911,0.81991 1.75,0.75 1.75,1.75 0,1 -0.9,3.3 0,4.5 l 2.25,3"
         style="fill:none;stroke:#000000;stroke-width:1px;stroke-linecap:butt;stroke-linejoin:miter;stroke-opacity:1" />
      <path
         sodipodi:nodetypes="cssss"
         id="path4253"
         d="m 714.75,735.86218 c -1.815,2.47155 4.01541,4.86263 6.75,6.25 2.72549,1.38275 6.54418,3.56913 9,1.75 0,0 8.76953,-3.06047 6.75,-5 -2.68204,-2.5758 -19.80928,-6.66404 -22.5,-3 z"
         style="fill:#4d4d4d;stroke:none" />
      <path
         id="path4255"
         d="m 794.5,717.86218 c 1.11938,4.73736 7.42118,6.01681 7.85729,10.9242 0.14281,5.00917 -1.36712,12.62061 5.07233,14.35197 2.17745,0.78247 5.27243,1.41927 5.57038,4.22383"
         style="fill:none;stroke:#000000;stroke-width:1px;stroke-linecap:butt;stroke-linejoin:miter;stroke-opacity:1" />
      <path
         id="path4264"
         d="m 862.5,704.86218 c 5.42651,0.17599 3.58939,7.14868 0.57834,9.38797 -3.75394,4.3399 -0.31318,8.39448 4.33921,8.40535 0.77726,4.9679 -7.89682,4.0514 -6.56993,9.81202 -0.0131,1.68989 0.36526,3.39522 1.15238,4.89466"
         style="fill:none;stroke:#000000;stroke-width:1px;stroke-linecap:butt;stroke-linejoin:miter;stroke-opacity:1" />
      <path
         id="path4301"
         d="m 838.85699,711.78383 c -8.21389,-4.30787 -21.43496,2.44069 -19.30243,12.50356 5.93504,6.1939 16.95742,4.26628 24.22099,3.44355 5.71645,-2.9496 10.79791,-20.56145 0.88386,-17.81495 -1.77549,0.91717 -3.65156,2.46701 -5.80242,1.86784 z"
         style="fill:#4d4d4d;fill-opacity:1;stroke:none" />
      <path
         id="path4273"
         d="m 811.5,716.36218 c 2.56709,4.43866 9.54795,3.04304 11.56833,8.19175 2.64805,4.49968 7.99529,4.93679 12.65212,4.37143 4.97531,0.28884 10.50795,-3.21717 8.7151,-8.82278 0.44617,-4.84478 5.67571,-7.88434 5.5631,-13.33641 0.26994,-0.98807 0.57704,-1.96993 1.00135,-2.90404"
         style="fill:none;stroke:#000000;stroke-width:1px;stroke-linecap:butt;stroke-linejoin:miter;stroke-opacity:1" />
      <path
         id="path4280"
         d="m 823,731.86218 c 0.45606,2.3101 -1.13193,4.45913 -2.11347,6.39445 -1.33645,1.11487 -0.54786,2.38434 0.37436,3.30345 0.0967,0.36206 0.27591,0.85212 0.73904,0.80208"
         style="fill:none;stroke:#000000;stroke-width:1px;stroke-linecap:butt;stroke-linejoin:miter;stroke-opacity:1" />
      <path
         id="path4293"
         d="m 845.5,731.11218 c -0.57652,2.14573 2.41467,1.39106 3.08676,2.67685 0.99499,1.53513 -0.18226,3.48984 0.88748,4.99236 0.64491,1.14854 0.87356,2.52586 0.77593,3.83076"
         style="fill:none;stroke:#000000;stroke-width:1px;stroke-linecap:butt;stroke-linejoin:miter;stroke-opacity:1" />
      <path
         id="path4316"
         d="m 696.85373,620.67349 c -0.7512,-3.32156 3.58749,-4.5655 4.02996,-7.61691 1.36691,-3.14795 5.20807,-3.5031 6.66494,-6.45881 2.17867,-1.77435 3.98563,-3.85378 5.88863,-5.89625 2.42354,-1.92961 5.07918,-3.53539 8.05598,-4.47663 0.65281,-0.2808 1.29117,-0.60266 1.877,-1.0072"
         style="fill:none;stroke:#000000;stroke-width:1px;stroke-linecap:butt;stroke-linejoin:miter;stroke-opacity:1" />
      <path
         id="path4322"
         d="m 749.17964,581.78262 c -2.13263,2.05899 -4.74212,3.46611 -7.03086,5.24248 -2.76009,3.83169 -5.81541,7.42049 -9.1267,10.80617 -2.05152,2.43826 -5.69463,2.74386 -8.29771,3.87026 l 0.0601,0.23363"
         style="fill:none;stroke:#000000;stroke-width:1px;stroke-linecap:butt;stroke-linejoin:miter;stroke-opacity:1" />
      <path
         id="path4504"
         d="m 733.26973,589.56079 c -6.65328,4.79055 -12.52562,10.5969 -19.51461,14.91637 -3.3579,3.80571 -6.60989,7.7917 -10.96567,10.60074 -2.65532,0.83028 -5.21047,9.18149 -1.5177,3.99678 2.99728,-4.94329 9.77598,-5.15663 12.77526,-10.05219 2.98128,-3.89221 7.07433,-6.68167 10.37354,-10.30833 2.99878,-2.64874 8.96047,-4.37523 9.22499,-8.79311 l -0.37581,-0.36026 0,0 z"
         style="fill:#999999;stroke:none" />
      <path
         id="path4512"
         d="m 736.09816,582.31294 c -6.4031,4.39071 -13.54457,7.52879 -20.40383,11.1169 -2.49278,1.32894 -5.0877,2.54623 -7.3999,4.15511 -3.52581,4.05184 -7.08433,8.23889 -11.7394,11.03462 -1.11655,1.15573 -2.85498,3.5587 -2.06416,4.94156 1.48625,-0.92179 1.97415,-2.81552 3.41796,-3.81969 3.38984,-2.89283 8.33934,-3.80629 10.83331,-7.75318 2.93899,-3.88377 7.63247,-5.83185 10.87136,-9.40801 2.90109,-2.36161 7.44507,-1.67929 9.88558,-4.73208 1.73705,-1.2747 3.88812,-2.19608 5.49905,-3.74755 0.37855,-0.44702 1.4911,-1.14111 1.10003,-1.78768 z"
         style="fill:#999999;stroke:none" />
      <path
         id="path4516"
         d="m 770.03929,578.24709 c 1.52313,1.26975 1.42648,3.55709 2.89727,4.8889 0.91355,1.64119 2.70538,2.41068 3.80888,3.82212 0.48855,1.78561 2.39563,2.38134 2.9896,4.06842 0.61827,0.75426 1.1105,1.83399 1.97151,1.71578"
         style="fill:none;stroke:#000000;stroke-width:1px;stroke-linecap:butt;stroke-linejoin:miter;stroke-opacity:1" />
      <path
         id="path4523"
         d="m 803.62686,602.46549 c 1.49931,-0.0968 2.96779,0.01 4.37401,0.5162 1.38281,-0.0353 2.92811,0.0244 4.0558,0.51331 0.35084,0.68935 1.37492,1.20494 2,1.62223"
         style="fill:none;stroke:#000000;stroke-width:1px;stroke-linecap:butt;stroke-linejoin:miter;stroke-opacity:1" />
      <path
         id="path4530"
         d="m 720.54181,627.39101 c 2.45689,0.009 4.916,-0.0323 7.37102,0.0525 1.2513,-0.12685 2.13269,-1.17733 3.32333,-1.48147 0.92591,0.43976 0.8687,-1.12231 -0.0644,-0.76381 0.0204,-0.72008 0.87088,-0.70598 1.3909,-0.63585"
         style="fill:none;stroke:#000000;stroke-width:1px;stroke-linecap:butt;stroke-linejoin:miter;stroke-opacity:1" />
      <path
         id="path4535"
         d="m 732.56297,609.71329 c 3.46298,8.91668 11.44959,15.3647 14.6724,24.30708"
         style="fill:none;stroke:#000000;stroke-width:1px;stroke-linecap:butt;stroke-linejoin:miter;stroke-opacity:1" />
      <path
         id="path4562"
         d="m 742.75,571.86218 c -2.9568,0.11252 -5.95303,-0.0461 -8.78472,0.95352 -2.90533,0.62223 -4.84844,3.09226 -7.60223,4.08225 -3.0883,1.69031 -6.29626,3.1705 -9.0164,5.45802 -1.64969,0.9399 -2.48897,2.77211 -4.09665,3.75621"
         style="fill:none;stroke:#000000;stroke-width:1px;stroke-linecap:butt;stroke-linejoin:miter;stroke-opacity:1" />
      <path
         id="path4568"
         d="m 709.25,566.86218 c -1.6469,-0.49983 -3.6387,-0.55605 -5.02972,0.60655 -0.39111,0.53048 -1.22359,0.70447 -1.30644,1.4404 -0.0521,0.75689 0.44691,1.61001 -0.11596,2.28125 -0.4987,0.55632 -0.79007,1.26962 -1.22265,1.87964 -0.69041,1.10275 -1.52287,2.1168 -2.5044,2.97243 -1.08999,1.09775 -0.59371,2.74435 -1.07114,4.06972"
         style="fill:none;stroke:#000000;stroke-width:1px;stroke-linecap:butt;stroke-linejoin:miter;stroke-opacity:1" />
      <path
         id="path4576"
         d="m 714.68658,446.97319 c -0.70573,1.00512 -1.35217,1.95555 -2.09375,3 0.71011,-1.00279 1.44091,-2.02556 2.125,-3 -0.01,0.002 -0.0214,-0.002 -0.0312,0 z m 40.125,6.5 c -6.52243,0.82847 -13.12685,2.63894 -19.625,3.25 -9.15869,0.86124 -24.08766,2.40842 -28.5625,2.875 -0.8942,4.60886 -2.02776,9.87612 -3.25,15.5 5.34016,8.52729 10.19011,19.72598 20.40625,11.96875 13.16061,-7.99404 25.52616,-18.92127 31.03125,-33.59375 z"
         style="fill:#bcbcbc;fill-opacity:1;stroke:none" />
      <path
         id="path4813"
         d="m 697.56084,533.3458 c 0.89161,-5.02216 5.5745,-8.60316 5.35491,-14.00148 1.85821,-4.74794 4.35208,-9.22481 6.16262,-14.00818 2.01239,-4.69581 4.18906,-9.34154 5.77466,-14.20347 0.19843,-0.6567 -0.48495,-1.96711 0.38548,-2.33455"
         style="fill:none;stroke:#000000;stroke-width:1px;stroke-linecap:butt;stroke-linejoin:miter;stroke-opacity:1" />
      <path
         id="path4820"
         d="m 713.11719,498.34402 c 4.82241,-3.85904 11.67653,-0.48576 16.87044,-3.75089 6.59887,-4.3502 10.31708,-11.72089 15.45224,-17.55492 0.92069,-1.29368 1.74743,-2.66662 2.32555,-4.15004"
         style="fill:none;stroke:#000000;stroke-width:1px;stroke-linecap:butt;stroke-linejoin:miter;stroke-opacity:1" />
      <path
         id="path4822"
         d="m 707.81389,507.88996 c 8.16156,-1.64077 16.06753,-4.61573 22.54935,-9.91003 5.53727,-3.18002 14.73015,0.84754 17.04863,-7.06053"
         style="fill:none;stroke:#000000;stroke-width:1px;stroke-linecap:butt;stroke-linejoin:miter;stroke-opacity:1" />
      <path
         id="path4824"
         d="m 705.33901,517.78946 c 5.53465,-2.17359 11.15801,-4.39001 17.21745,-3.39031 4.416,-0.36099 8.54314,-2.47507 11.77393,-5.44853"
         style="fill:none;stroke:#000000;stroke-width:1px;stroke-linecap:butt;stroke-linejoin:miter;stroke-opacity:1" />
      <path
         id="path4826"
         d="m 702.86414,525.21408 c 6.10703,-5.6981 14.40932,-1.55704 21.48788,-2.29188 2.3633,-0.43191 4.63059,-1.27964 6.79639,-2.30378"
         style="fill:none;stroke:#000000;stroke-width:1px;stroke-linecap:butt;stroke-linejoin:miter;stroke-opacity:1" />
      <path
         id="path4852"
         d="m 703.04092,517.4359 c 0.0155,-3.65108 -0.99024,-7.19794 -1.06102,-10.78332"
         style="fill:none;stroke:#000000;stroke-width:1px;stroke-linecap:butt;stroke-linejoin:miter;stroke-opacity:1" />
      <path
         id="path4854"
         d="m 707.99067,506.29897 c -1.71489,-2.61827 -0.49728,-6.24449 -2.65165,-8.66206"
         style="fill:none;stroke:#000000;stroke-width:1px;stroke-linecap:butt;stroke-linejoin:miter;stroke-opacity:1" />
      <path
         id="path4856"
         d="m 711.34942,496.39948 c -3.50236,-2.49663 -2.65053,-7.61673 -5.72735,-10.43508 -0.71023,-0.91317 -1.33578,-1.98413 -1.34372,-3.17673"
         style="fill:none;stroke:#000000;stroke-width:1px;stroke-linecap:butt;stroke-linejoin:miter;stroke-opacity:1" />
      <path
         id="path4912"
         d="m 762,566.11218 1,-11.75"
         style="fill:none;stroke:#000000;stroke-width:1px;stroke-linecap:butt;stroke-linejoin:miter;stroke-opacity:1" />
      <path
         id="path4929"
         d="m 799.125,581.11218 -3.25,4.375"
         style="fill:#999999;stroke:#999999;stroke-width:1px;stroke-linecap:butt;stroke-linejoin:miter;stroke-opacity:1" />
    </g>
  </g>
</svg>
