<?xml version="1.0" standalone="yes"?>
<svg width="256" height="407">
<path style="fill:#5a9968" d="M11 0 c1.532 2.637 6.468 2.637 8 0 l5 0 c0.8681 3.314 5.817 2.102 7 0 l2 0 c-3.578 9.005 -7.892 3.533 -13.75 2.25 c-7.408 5.623 7.163 11.46 -0.5 17.5 c-12.51 1.661 -17.39 -5.569 -10 -16.5 c-4.073 -2.498 -5.985 2.933 -7.75 5.75 l-1 0 l0 -9 l11 0 z"/>
<path style="fill:#7aaa7b" d="M19 0 c-1.532 2.637 -6.468 2.637 -8 0 l8 0 z"/>
<path style="fill:#7eaa80" d="M31 0 c-1.183 2.102 -6.132 3.314 -7 0 l7 0 z"/>
<path style="fill:#3d704b" d="M39 0 c0.7106 3.698 6.258 4.78 9 2 c4.482 -0.2965 8.967 2.108 12 -2 l12 0 c-3.506 5.085 -14.52 -1.499 -16 6 c-2.212 -0.6174 -5.239 -5.611 -8 -2 l-2 2 c-6.988 0.5529 -12.19 -9.746 -16 1 c-12.34 -5.471 -10.69 -1.171 -7 10 c-0.4212 2.714 -2.414 5.113 -5 6 c-12.09 2.55 -16.22 -4.898 -17 -14 c1.765 -2.817 3.677 -8.248 7.75 -5.75 c-7.385 10.93 -2.514 18.16 10 16.5 c7.663 -6.045 -6.908 -11.88 0.5 -17.5 c5.858 1.283 10.17 6.755 13.75 -2.25 l6 0 z"/>
<path style="fill:#64946e" d="M41 0 c0.5547 2.81 5.445 2.81 6 0 l3 0 l-2 2 c-2.742 2.78 -8.289 1.698 -9 -2 l2 0 z"/>
<path style="fill:#81b08b" d="M47 0 c-0.5547 2.81 -5.445 2.81 -6 0 l6 0 z"/>
<path style="fill:#577760" d="M60 0 c-3.033 4.108 -7.518 1.703 -12 2 l2 -2 l10 0 z"/>
<path style="fill:#402d3c" d="M81 0 c1.086 7.294 9.389 0.236 12.75 5.25 c-17.15 3.98 -31.49 24.13 -6.75 12.75 c0.3779 12 -35.17 14.16 -24.75 36.75 c16.38 -4.624 39.45 -10.63 52.75 -1.75 c7.362 1.919 17.28 -7.357 5 -8 l-22 -9 c14.29 -10.29 39.46 -4.409 55.75 -12.75 c22.04 24.81 60.61 43.63 80 44.5 l-10.5 -17.5 c3.232 -1.408 5.543 1.061 8 2.5 c6.386 14.12 24.92 2.161 24.75 18.25 l0 31 c-1.658 2.312 -1.658 8.688 0 11 l0 232 l-1.25 -227.8 c-30.34 -4.02 -30.1 21.67 -31.5 48.5 c16.99 -48.12 -41.69 -103.7 -41.5 -52 c-14.91 16.53 -13.05 -13.1 -18.75 8.25 l-2 0 l-3 -9 l-1 -14 c16.99 -2.044 -4.699 -31.95 -4.25 -47.75 c-15.86 -4.54 -7.808 9.735 -11.75 18.75 c-11.06 8.344 -18.57 -11.59 -29 0 c-2.666 0.3068 -5.693 3.334 -6 6 c-3.845 6.818 -6.221 -6.174 -11 1 l-7 4 c-12.21 9.492 -22.93 22.82 -30 37 l-5 8 c0.002644 11.11 -12.6 18.02 -15 29 l-6 11 l0 1 l-1 0 c2.161 -9.505 8.363 -18.58 13 -27 c3.96 -2.539 7.592 -7.42 5 -12 c14.29 -23.4 28.96 -52.14 58.75 -58.25 c1.788 -15.41 -10.46 -22.12 -19.75 -8.75 c-6.323 -4.509 -35.34 -16.41 -41 10 c-8.471 3.889 -13.31 15.56 -23.75 11.75 c14.49 -25.08 45.99 -46.4 54.5 -80.5 c-10.85 -3.614 -18.29 8.178 -25.75 3.75 c0.7069 -2.682 -2.449 -1.935 -4 -2 c2.761 -3.611 5.788 1.383 8 2 c1.482 -7.499 12.49 -0.9154 16 -6 l9 0 z"/>
<path style="fill:#6d5658" d="M84 0 l19.75 3.25 c-3.728 3.873 -19.28 8.746 -6 12 c4.687 5.5 -10.17 8.628 -12.5 14.5 c32.9 4.139 61.45 -29.1 81 4 c2.359 0.4703 4.088 -1.659 4.75 -3.75 l12 -1 c9.336 6.023 22.63 -10.52 31.75 -0.75 c11.58 4.033 14.62 -11.35 25.25 -3.25 c2.021 0.2436 5.37 1.306 5 4 c-23.18 12.92 -45.32 7.723 -72.75 3.25 c2.556 10.52 14.28 12.5 22.5 17 l28.5 11.5 c8.325 0.7247 -15.41 -16.25 0.75 -13.75 l1 0 l16.75 10.75 c-10.32 -14.19 8.78 -10.02 14.25 -1.75 l0 15 c0.1651 -16.09 -18.36 -4.127 -24.75 -18.25 c-2.457 -1.439 -4.768 -3.908 -8 -2.5 l10.5 17.5 c-19.39 -0.8707 -57.96 -19.69 -80 -44.5 c-16.29 8.341 -41.46 2.459 -55.75 12.75 l22 9 c8.714 1.839 -1.91 5.956 -5 8 c-13.3 -8.875 -36.37 -2.874 -52.75 1.75 c-10.42 -22.59 25.13 -24.75 24.75 -36.75 c-24.74 11.38 -10.4 -8.77 6.75 -12.75 c-3.361 -5.014 -11.66 2.044 -12.75 -5.25 l3 0 z"/>
<path style="fill:#888371" d="M114 0 c0.369 7.367 34.86 9.121 14 0 l11 0 l1.25 12.75 c6.676 -1.364 2.446 -8.916 3.75 -12.75 l5 0 c-7.4 21.02 23.96 18.55 23 0 l8 0 c1.111 4.051 9.941 4.778 10 0 l9 0 c2.561 5.611 11.89 5.626 17 6 c-3.434 4.897 -8.396 -1.303 -13 0 c-13.26 12.87 36.99 6.682 13 0 c3.475 -5.324 10.54 7.061 11 -1 l2 2 c-3.612 10.67 9.538 13.35 17 11 c1.289 5.386 8.21 -2.431 6 -6 l4 -6 l0 5 c-2.305 1.126 -2.305 4.874 0 6 l0 7 c-8.571 -8.394 -8.809 5.714 -2 9 c-10.24 -3.931 -11.18 15.97 1 10 l1 9 l0 4 c-5.47 -8.266 -24.57 -12.44 -14.25 1.75 l-16.75 -10.75 l5.75 0.75 c-7.965 -20.55 -24.52 -4.906 -37.5 -3.5 c4.411 6.869 12.6 3.873 18.5 10 c14.03 9.019 5.356 -4.064 -0.5 -9 c3.296 -4.786 9.285 0.7213 12.75 1.75 c-16.16 -2.495 7.575 14.47 -0.75 13.75 l-28.5 -11.5 c-8.217 -4.496 -19.94 -6.478 -22.5 -17 c27.43 4.473 49.57 9.674 72.75 -3.25 c0.3704 -2.694 -2.979 -3.756 -5 -4 c-10.63 -8.102 -13.67 7.283 -25.25 3.25 c-9.122 -9.771 -22.41 6.773 -31.75 0.75 c2.986 -4.391 10.24 -2.516 7 -10 c19.55 -6.002 -34.56 -11.76 -19 11 c-0.6618 2.091 -2.391 4.22 -4.75 3.75 c-19.55 -33.1 -48.1 0.1392 -81 -4 c2.329 -5.872 17.19 -9 12.5 -14.5 c-13.28 -3.254 2.272 -8.127 6 -12 l-19.75 -3.25 l30 0 z"/>
<path style="fill:#5a5449" d="M128 0 c20.86 9.121 -13.63 7.367 -14 0 l14 0 z"/>
<path style="fill:#a19d88" d="M144 0 c-1.304 3.834 2.926 11.39 -3.75 12.75 l-1.25 -12.75 l5 0 z"/>
<path style="fill:#b0ad8d" d="M172 0 c0.9641 18.55 -30.4 21.02 -23 0 l23 0 z"/>
<path style="fill:#a0ae8a" d="M190 0 c-0.05927 4.778 -8.889 4.051 -10 0 l10 0 z"/>
<path style="fill:#9ead84" d="M225 0 c-0.7817 2.242 1.228 3.327 2 5 c-0.4613 8.061 -7.525 -4.324 -11 1 c-5.105 -0.3737 -14.44 -0.3894 -17 -6 l26 0 z"/>
<path style="fill:#6d8060" d="M227 0 c-0.7817 2.242 1.228 3.327 2 5 l0 2 l-2 -2 c-0.7724 -1.673 -2.782 -2.758 -2 -5 l2 0 z"/>
<path style="fill:#35583f" d="M228 0 c2.979 7.091 11.88 6.7 14 0 l12 0 c-8.067 2.968 -16.01 16.73 -25 5 c-0.7724 -1.673 -2.782 -2.758 -2 -5 l1 0 z"/>
<path style="fill:#23372d" d="M242 0 c-2.121 6.7 -11.02 7.091 -14 0 l14 0 z"/>
<path style="fill:#4c754c" d="M255 0 l-0.25 4.75 c-9.401 -1.899 -20.18 24.54 -25.75 2.25 l0 -2 c8.985 11.73 16.93 -2.032 25 -5 l1 0 z"/>
<path style="fill:#688f5f" d="M256 0 l0 6 l-4 6 c-2.503 -3.083 -9.04 2.853 -6 6 c-7.462 2.351 -20.61 -0.3273 -17 -11 c5.574 22.29 16.35 -4.149 25.75 -2.25 l0.25 -4.75 l1 0 z"/>
<path style="fill:#2c5c38" d="M46 6 l-5.75 3.25 c-1.79 11.46 -17.01 -8.707 -17.25 7.75 c-3.685 -11.17 -5.34 -15.47 7 -10 c3.81 -10.75 9.012 -0.4471 16 -1 z"/>
<path style="fill:#212c2a" d="M88 61 c-6.355 0.8735 1.471 6.794 -1.25 8.75 c-38.72 -6.513 -78.71 35.15 -55 81 c-15.55 4.179 -6.302 24.13 -5.75 26.25 l-1 5 c-1.413 1.194 -1.957 3.925 -2 6 c-2.836 8.462 -2.85 18.66 -2 28 c-0.8967 10.29 -2.994 23.83 -1 34 l0 2 c-0.9533 8.091 2.977 14.77 5 22 c-7.221 -9.706 -2.523 2.038 -3.75 6.75 l-19 -5.5 c-2.249 31.81 -1.751 67.15 -0.25 98.75 c0.1547 1.181 -1.337 1.019 -2 1 l0 -162 c4.819 -11.75 -6.053 -33.02 9 -35 c-17.44 -9.726 9.405 -16.92 18 -31 c-0.4 -4.403 -2.507 -9.112 -6.25 -12.75 c4.19 9.527 -16.93 20.35 -20.75 10.75 l0 -9 c1.655 -1.985 1.655 -8.015 0 -10 l0 -5 c10.92 -1.537 18.77 -10.84 24 -27 c-17.13 -3.564 -13.64 -27.56 -11.25 -39.75 c-5.984 -1.855 -9.245 14.03 -12.75 5.75 l0 -4 c6.015 -7.352 -1.001 -18.2 1 -27 c6.533 3.411 12.95 7.141 18 12 c6.851 -3.831 -1.048 -12.14 -5 -15 l4 -3 c2.586 -0.8873 4.579 -3.286 5 -6 c0.2353 -16.46 15.46 3.71 17.25 -7.75 l5.75 -3.25 l2 -2 c1.551 0.06494 4.707 -0.6824 4 2 c-6.775 -3.225 -2.111 7.49 0 0 c7.465 4.428 14.9 -7.364 25.75 -3.75 c-8.506 34.1 -40.01 55.42 -54.5 80.5 c10.44 3.812 15.28 -7.861 23.75 -11.75 c5.663 -26.41 34.68 -14.51 41 -10 z"/>
<path style="fill:#082a11" d="M52 6 c-2.111 7.49 -6.775 -3.225 0 0 z"/>
<path style="fill:#628557" d="M216 6 c23.99 6.682 -26.26 12.87 -13 0 c4.604 -1.303 9.566 4.897 13 0 z"/>
<path style="fill:#ac9886" d="M124 7 c31.49 10.26 -23.29 20.59 0 0 z"/>
<path style="fill:#25553c" d="M1 9 c0.7754 9.102 4.912 16.55 17 14 l-4 3 c3.952 2.857 11.85 11.17 5 15 c-5.047 -4.859 -11.47 -8.589 -18 -12 l-1 -6 l0 -14 l1 0 z"/>
<path style="fill:#092417" d="M59 10 c9.897 -2.58 2.897 7.611 0 0 z"/>
<path style="fill:#687468" d="M85 11 c8.736 -0.2915 -2.378 6.334 0 0 z"/>
<path style="fill:#7faf81" d="M252 12 c2.21 3.569 -4.711 11.39 -6 6 c-3.04 -3.147 3.497 -9.083 6 -6 z"/>
<path style="fill:#9cb26b" d="M256 11 l0 6 c-2.305 -1.126 -2.305 -4.874 0 -6 z"/>
<path style="fill:#678064" d="M183 29 l-12 1 c-15.56 -22.76 38.55 -17 19 -11 c3.236 7.484 -4.014 5.609 -7 10 z"/>
<path style="fill:#9aa688" d="M212 13 c15.84 3.549 -10.13 10.19 0 0 z"/>
<path style="fill:#9f9b86" d="M203 19 c10.09 0.4238 -5.791 6.477 0 0 z"/>
<path style="fill:#a5878b" d="M104 20 c10.87 2.281 -13.72 10.82 -4.25 2.75 l4.25 -2.75 z"/>
<path style="fill:#092418" d="M32 21 l5 2 c6.534 5.89 -15.53 2.462 -5 -2 z"/>
<path style="fill:#737453" d="M256 24 l0 16 c-1.592 0.05585 -0.8102 2.053 -1 3 c-12.18 5.97 -11.24 -13.93 -1 -10 c-6.809 -3.286 -6.571 -17.39 2 -9 z"/>
<path style="fill:#47564d" d="M1 29 c-2.001 8.797 5.015 19.65 -1 27 l0 -5 c1.597 -0.4472 1.597 -4.553 0 -5 l0 -23 l1 6 z"/>
<path style="fill:#052f1c" d="M21 26 c9.336 0.2698 -2.689 7.803 0 0 z"/>
<path style="fill:#0e1816" d="M39 29 c13.73 -0.06228 35.87 3.337 11.25 9.25 c-2.178 15.87 -22.88 29.36 -23.5 3.5 c10.98 13.89 19.64 0.9608 12.25 -12.75 z"/>
<path style="fill:#281b2d" d="M142 30 c27.08 1.367 1.398 8.056 3.75 18.75 l-26.75 -7.75 c2.231 -2.052 5.388 -4.689 9 -4 c8.195 3.653 8.695 -5.044 14 -7 z"/>
<path style="fill:#344840" d="M31 31 c3.29 1.046 5.717 8.135 4.75 10.75 c-3.252 -1.311 -5.163 -7.567 -4.75 -10.75 z"/>
<path style="fill:#4e4c3a" d="M226 31 l6.25 0.75 c9.491 6.555 -13.86 5.684 -6.25 -0.75 z"/>
<path style="fill:#0f1912" d="M7 36 c5.832 0.001221 5.641 5.103 8.25 8.75 c29.27 3.282 -26.61 12.4 -8.25 -8.75 z"/>
<path style="fill:#a78582" d="M182 36 l9.75 6.75 c-3.544 -0.916 -11.68 -1.56 -9.75 -6.75 z"/>
<path style="fill:#a98382" d="M225 47 l-1 0 c-3.465 -1.029 -9.454 -6.536 -12.75 -1.75 c5.856 4.936 14.53 18.02 0.5 9 c-5.904 -6.127 -14.09 -3.131 -18.5 -10 c12.98 -1.406 29.54 -17.05 37.5 3.5 l-5.75 -0.75 z"/>
<path style="fill:#573e45" d="M70 38 l7 0 c8.337 2.684 -17.6 10.42 -7 0 z"/>
<path style="fill:#b79d98" d="M214 38 c2.498 0.6733 6.566 0.1639 7.75 2.75 c-2.377 -0.5634 -6.173 -0.4657 -7.75 -2.75 z"/>
<path style="fill:#a79584" d="M237 39 c9.235 3.535 -7.128 6.722 0 0 z"/>
<path style="fill:#a49c6d" d="M256 40 l0 12 l-1 -9 c0.1898 -0.9471 -0.592 -2.944 1 -3 z"/>
<path style="fill:#88676f" d="M88 41 c14.8 2.38 -21.38 11.65 -15.75 5.25 c1.818 -1.586 4.345 -2.141 6.75 -2.25 c3.019 -0.6006 6.996 -0.5912 9 -3 z"/>
<path style="fill:#815e72" d="M99 43 c9.501 -0.8483 -2.001 6.872 0 0 z"/>
<path style="fill:#6a536b" d="M157 43 c4.619 2.041 10.76 4.731 12.75 9.75 c-5.668 1.319 -13.22 -3.522 -12.75 -9.75 z"/>
<path style="fill:#543e52" d="M115 53 c3.09 -2.044 13.71 -6.161 5 -8 c12.28 0.643 2.362 9.919 -5 8 z"/>
<path style="fill:#70746b" d="M0 51 l0 -5 c1.597 0.4472 1.597 4.553 0 5 z"/>
<path style="fill:#2c1628" d="M180 49 c9.075 1.187 -1.771 7.154 0 0 z"/>
<path style="fill:#5e445a" d="M157 99 c7.181 -10.93 -4.158 -39.12 -16 -29 c3.942 -9.015 -4.114 -23.29 11.75 -18.75 c-0.4491 15.8 21.24 45.71 4.25 47.75 z"/>
<path style="fill:#625166" d="M172 52 c10.48 -0.1362 0.8922 9.053 0 0 z"/>
<path style="fill:#1a0e1d" d="M49 128 l-5 12 c-4.637 8.422 -10.84 17.49 -13 27 c-2.901 1.12 -4.383 6.597 -5 10 c-0.5524 -2.124 -9.8 -22.07 5.75 -26.25 c-23.71 -45.85 16.28 -87.51 55 -81 c2.721 -1.956 -5.105 -7.876 1.25 -8.75 c9.294 -13.37 21.54 -6.66 19.75 8.75 c-29.79 6.111 -44.46 34.85 -58.75 58.25 z"/>
<path style="fill:#365c42" d="M0 121 l0 -7 l1 0 c10.79 -0.1113 0.1346 -13.6 9 -18 c8.678 -1.622 -2.033 -12.78 -1 -18 c0.09873 -8.259 -6.463 0.2982 -9 -1 l0 -17 c3.505 8.277 6.766 -7.605 12.75 -5.75 c-2.395 12.19 -5.878 36.19 11.25 39.75 c-5.228 16.16 -13.08 25.46 -24 27 z"/>
<path style="fill:#201a30" d="M133 57 c9.846 0.9921 -3.083 9.215 0 0 z"/>
<path style="fill:#514852" d="M167 63 c9.301 1.667 -2.35 7.251 0 0 z"/>
<path style="fill:#8b4f4d" d="M141 70 c11.84 -10.12 23.18 18.07 16 29 l1 14 c0.2589 7.942 -0.09663 20.15 5 27 l3 9 c-0.2891 11.07 -8.575 -4.705 -16 1 c-2.382 -3.629 -7.326 -2.681 -11 -4 c-3.457 -2.09 -10.18 -3.505 -13.75 0.25 c-12.95 20.53 45.84 -2.752 41.5 28.5 c-1.515 0.5242 -3.555 0.5336 -4.5 -1 c-6.598 -4.195 -14.79 -3.352 -22.25 -4.75 c-4.976 -0.7554 -18.13 1.217 -12 8 c-5.498 -0.6199 -4.033 -7.8 -2.25 -10.75 c-28.55 3.514 8.212 -41.15 28 -20.5 c-6.78 -29.53 6.973 -85.04 -41.75 -75.75 c10.43 -11.59 17.94 8.344 29 0 z"/>
<path style="fill:#b97661" d="M128 177 c0.6634 -0.01862 2.155 -0.1814 2 1 c4.819 1.686 8.112 -0.9463 10 5 c-0.6358 3.1 3.275 1.702 5 2 c-0.1547 1.181 1.337 1.019 2 1 c15.06 3.72 32.23 5.995 40 22 c1.384 5.363 0.9809 11.24 1 17 c-0.1898 0.9471 0.592 2.944 -1 3 c-10.67 17.69 -7.227 43.16 -22 59 c0.3551 2.23 -0.9678 5.222 1.25 6.75 c19.04 -11.12 0.5108 17.59 5.75 31.25 c-24.88 -44.93 -78.49 61.67 -107 -16 c41.16 -16.4 122.3 -11.07 121 -95 c-14.15 -34.17 -105.7 -27.64 -62 -76 c-36.65 -34.75 -3.301 0.4484 23.25 -0.75 c2.17 -14.98 -0.3455 -33.92 -1.25 -51.25 c-4.5 -13.31 -26.97 -13.96 -38 -10 l-2 2 l0 -2 c0.3068 -2.666 3.334 -5.693 6 -6 c48.72 -9.287 34.97 46.22 41.75 75.75 c-19.79 -20.65 -56.55 24.01 -28 20.5 c-1.783 2.95 -3.248 10.13 2.25 10.75 z"/>
<path style="fill:#223d19" d="M1 71 c4.67 2.005 -1.739 6.176 0 0 z"/>
<path style="fill:#d39881" d="M172 325 l0 1 c-1.135 4.133 -2.176 14.16 5 10 l-1 3 c-2.112 1.149 -2.314 3.408 -2 6 c-0.7723 1.673 -2.782 2.758 -2 5 l-3 11 l-1 1 c-1.107 -7.624 6.983 -16.26 3 -22 l-10 20 l-5 11 l-12.25 17.75 c-1.755 -23.25 38.26 -49.69 18.25 -70.75 c-12.53 19.08 -43.04 24.91 -59.25 45.75 c-26.76 -3.25 -34.13 -35.4 -45 -55.5 c-9.02 -18.44 -6.928 11.96 -8.75 18.75 c-3.136 -12.39 8.023 -31.84 -8 -36 l-6 -6 l0 -2 c24.73 15.07 77.25 20.64 84 -11 l-13 -12 l7.75 1.75 c-5.807 -18.1 -35.22 -28.1 -56.75 -25.75 l0 -2 c13.09 1.121 27.93 -1.977 37 7 l19.25 8.75 c8.453 5.653 5.503 16.64 8 24 c24.93 -8.491 51.7 -29.22 59.75 -60.75 c-12.65 -23.98 -47.32 -24.65 -68.75 -35.25 c8.396 -36.98 -14.07 -59.94 -15.5 -97.5 c-10.92 9.619 -49.19 42.66 -28.75 47.75 l0 1 l-12.75 -0.25 l28.75 -41.75 l3 -3 l11.75 -5.75 c-1.933 9.589 1.75 26.16 3.25 7.75 l1 -2 l2 -2 c-6.13 18.94 1.889 43.24 22 50 l17.75 3.75 c4.602 -4.651 -3.352 -6.785 -3.75 -10.75 l5.75 -1.25 c2.067 -29.29 -7.81 -52.72 -38.75 -47.75 c11.03 -3.955 33.5 -3.311 38 10 c0.9045 17.33 3.42 36.27 1.25 51.25 c-26.55 1.198 -59.9 -34 -23.25 0.75 c-43.68 48.36 47.85 41.83 62 76 c1.288 83.93 -79.84 78.6 -121 95 c28.51 77.67 82.12 -28.93 107 16 z"/>
<path style="fill:#697855" d="M9 78 c-2.606 -5.836 -5.868 3.224 -9 1 l0 -2 c2.537 1.298 9.099 -7.259 9 1 z"/>
<path style="fill:#855350" d="M106 76 l0 2 c-2.214 0.9013 -3.154 3.747 -3 6 l-1 2 c-4.818 -0.8793 1.381 -13.91 -7 -9 c4.779 -7.174 7.155 5.818 11 -1 z"/>
<path style="fill:#e9b5a5" d="M127 132 c5.254 -0.147 9.399 2.045 13.75 -1.25 c-12.43 -15.14 -24.74 -32.87 -30 -53.5 l-5.75 4.75 l1 -4 l2 -2 c30.94 -4.969 40.82 18.46 38.75 47.75 l-5.75 1.25 c0.3983 3.965 8.352 6.099 3.75 10.75 l-17.75 -3.75 z"/>
<path style="fill:#7f9361" d="M9 78 c-1.033 5.219 9.678 16.38 1 18 l-10 5 l0 -7 l1 0 c16.66 8.35 3.286 -27.9 3.25 -9.75 c-1.352 0.9049 -2.836 2.111 -4.25 0.75 l0 -6 c3.132 2.224 6.394 -6.836 9 -1 z"/>
<path style="fill:#a57568" d="M102 86 c-1.5 18.41 -5.183 1.839 -3.25 -7.75 l-11.75 5.75 l1 -3 l7 -4 c8.381 -4.913 2.182 8.121 7 9 z"/>
<path style="fill:#f1cdbc" d="M127 132 c-20.11 -6.761 -28.13 -31.06 -22 -50 l5.75 -4.75 c5.256 20.63 17.57 38.36 30 53.5 c-4.351 3.295 -8.496 1.103 -13.75 1.25 z"/>
<path style="fill:#a1ab77" d="M1 94 c8.225 0.4407 7.995 -8.622 -1 -7 l0 -2 c1.414 1.361 2.898 0.1549 4.25 -0.75 c0.03625 -18.15 13.41 18.1 -3.25 9.75 z"/>
<path style="fill:#a87772" d="M106 78 l-1 4 l-2 2 c-0.154 -2.253 0.7862 -5.099 3 -6 z"/>
<path style="fill:#eaaf9a" d="M94 241 c34.03 13.1 71.86 5.317 79.75 -33.75 c-17.64 -15.95 -46.67 -21.92 -68.5 -24.5 c9.984 -36.44 -6.682 -63.49 -9.5 -100.5 l-28.5 34 c-22.25 20.26 49.42 2.507 30.5 33.5 c-8.096 50.23 -60.19 -12.63 -66.75 25.25 l-2 8 c-17.43 52.51 -2.145 127.9 63.75 102.8 c-7.098 -21.42 -49.42 -9.891 -43 -39.5 c-28.88 9.331 -12.85 -25.52 7.25 -12.25 l0 2 c-0.9471 0.1898 -2.944 -0.592 -3 1 c-8.586 -4.768 -21.05 7.249 -6 7 l3 1 l24.75 6.25 c-38.73 -9.505 3.787 38.39 16.25 12.75 c3.09 -4.426 8.751 -4.412 14 -4 l13 12 c-6.746 31.64 -59.27 26.07 -84 11 c-14.95 -18.67 -13.08 -44 -12 -68 l0 -3 l1 -9 l0 -2 l1 -8 l0 -6 l2 -6 l1 -4 l0 -1 c1.642 -1.571 3.192 -4.417 3 -7 c1.181 0.1547 1.019 -1.337 1 -2 l0 -1 c3.536 -1.672 4.057 -6.026 6 -9 l3 -3 l5 3 l13 7 c5.725 5.154 15.06 5.526 22 3 c5.68 0.6089 9.017 -4.575 11 -9 l2 -7 c2.616 -5.388 2.712 -15.91 -5 -18 c-1.95 -1.832 -5.208 -3.403 -8 -4 l-13 -1 c-20.44 -5.095 17.83 -38.13 28.75 -47.75 c1.428 37.56 23.9 60.52 15.5 97.5 c21.43 10.6 56.1 11.27 68.75 35.25 c-8.055 31.53 -34.82 52.26 -59.75 60.75 c-2.497 -7.364 0.4529 -18.35 -8 -24 l-19.25 -8.75 z"/>
<path style="fill:#2c1b27" d="M184 80 c12.88 2.68 -4.881 13.56 0 0 z"/>
<path style="fill:#84564a" d="M88 81 l-1 3 l-3 3 c-10.9 8.507 -17.59 20.95 -26 31 c7.071 -14.18 17.79 -27.51 30 -37 z"/>
<path style="fill:#facfbe" d="M126 81 c19.33 1.365 12.05 24.04 14.75 37.75 c-14.13 -2.753 -26.24 -27.07 -14.75 -37.75 z"/>
<path style="fill:#fad0bd" d="M94 241 c-9.07 -8.977 -23.91 -5.879 -37 -7 c-20.1 -13.27 -36.13 21.58 -7.25 12.25 c-6.417 29.61 35.9 18.08 43 39.5 c-65.89 25.15 -81.18 -50.24 -63.75 -102.8 c-3.027 11.52 4.578 19.27 5.25 28.75 c20.18 -11.05 37.75 -17.1 59.5 -14 c0.8504 -14.34 12.61 -30.63 9 -45.5 c-13.58 43.21 -55.09 1.242 -71.75 22.75 c6.557 -37.88 58.65 24.98 66.75 -25.25 c18.92 -30.99 -52.75 -13.24 -30.5 -33.5 l28.5 -34 c2.818 37.01 19.48 64.06 9.5 100.5 c21.83 2.576 50.86 8.553 68.5 24.5 c-7.887 39.07 -45.72 46.85 -79.75 33.75 z"/>
<path style="fill:#fae9d8" d="M108 82 c9.668 11.87 12.85 32.04 25.75 42.75 c-18.26 13.77 -38.09 -26.58 -25.75 -42.75 z"/>
<path style="fill:#c0c28a" d="M1 94 l-1 0 l0 -7 c8.995 -1.622 9.225 7.441 1 7 z"/>
<path style="fill:#ab786c" d="M84 87 l-28.75 41.75 l12.75 0.25 l13 0 c2.792 0.5972 6.05 2.168 8 4 c5.636 4.408 5.43 11.31 5 18 c-2.131 1.775 -3.55 4.269 -2 7 c-1.983 4.425 -5.32 9.609 -11 9 c-7.852 0.7953 -15.01 -0.8177 -22 -3 l-13 -7 c0.08461 -3.812 -3.066 -9.118 -5 -3 l-3 3 l0 -2 c4.496 -9.518 18.88 -18.09 15 -29 l5 -8 c8.407 -10.05 15.1 -22.49 26 -31 z"/>
<path style="fill:#231629" d="M256 345 l0 5 l-5 -2 l-1 -2 l-2 -2 c-0.6726 -1.456 -2.147 -3.326 -4 -3 c-0.5794 -3.924 -5.727 -5.155 -9 -6 l-1 -1 l-27 -8 l-7 -7 c-0.9381 -5.192 -7.982 -5.599 -11.75 -6.75 l10.5 70.5 l-8.5 0 l-1.5 -14.5 l-0.75 -22.25 c-1.87 -7.633 -0.3706 -17.31 -6 -23 l-1.75 -4.25 l-5 4 c-2.333 -17.39 7.835 -33.98 6.75 -49.75 c-0.87 -3.101 1.573 -6.781 5 -6 c9.77 6.509 24.02 -4.927 11 -13 c-19.05 -10.94 3.173 -32.24 -7 -48 c-3.013 -7.496 -3.151 -18.97 -11 -23 c-2.278 -1.246 -3.969 -3.945 -5 -6 c0.01862 -0.6634 0.1814 -2.155 -1 -2 c-2.95 -5.395 2.84 -10.93 -8 -11 c-8.317 -5.39 5.825 -8.571 1 -15 l-4 -27 c5.701 -21.35 3.841 8.278 18.75 -8.25 c-0.1927 -51.67 58.49 3.884 41.5 52 c1.399 -26.83 1.163 -52.52 31.5 -48.5 l1.25 227.8 z"/>
<path style="fill:#4e8659" d="M10 96 c-8.865 4.404 1.791 17.89 -9 18 c1.291 -3.415 3.304 -7.138 -1 -10 l0 -3 l10 -5 z"/>
<path style="fill:#b0856d" d="M100 99 c5.774 6.446 -3.182 8.726 0 0 z"/>
<path style="fill:#fcf3e1" d="M92 100 c3.614 4.212 6.953 12.98 6.75 19.75 l-25.5 3 l18.75 -22.75 z"/>
<path style="fill:#57494c" d="M256 102 l0 11 c-1.658 -2.312 -1.658 -8.688 0 -11 z"/>
<path style="fill:#5e9c79" d="M1 114 l-1 0 l0 -10 c4.304 2.862 2.291 6.585 1 10 z"/>
<path style="fill:#6f2f31" d="M158 113 l3 9 l2 18 c-5.097 -6.849 -4.741 -19.06 -5 -27 z"/>
<path style="fill:#531f22" d="M163 122 l4 27 l-1 0 l-3 -9 l-2 -18 l2 0 z"/>
<path style="fill:#2b5445" d="M16 125 c11.94 10.86 -14.72 13.55 0 0 z"/>
<path style="fill:#382e44" d="M0 136 l0 -10 c1.655 1.985 1.655 8.015 0 10 z"/>
<path style="fill:#83584b" d="M53 126 c3.884 10.91 -10.5 19.48 -15 29 c2.402 -10.98 15 -17.89 15 -29 z"/>
<path style="fill:#3a1a12" d="M49 128 c2.592 4.58 -1.04 9.461 -5 12 l5 -12 z"/>
<path style="fill:#af8e8d" d="M81 129 l-13 0 l0 -1 l13 1 z"/>
<path style="fill:#6e403c" d="M90 137 c3.409 8.638 -4.497 7.127 -9 3 l-14.75 -8.75 c7.854 -3.516 18.33 -0.4908 23.75 5.75 z"/>
<path style="fill:#4f231f" d="M77 133 c4.524 -0.6098 11.75 2.279 9.75 7.75 c-3.262 -1.305 -8.885 -3.629 -9.75 -7.75 z"/>
<path style="fill:#c68e82" d="M94 151 c0.4305 -6.693 0.6362 -13.59 -5 -18 c7.712 2.086 7.616 12.61 5 18 z"/>
<path style="fill:#474748" d="M0 213 l0 -45 c0.2489 -5.331 5.98 -13.61 0 -18 l0 -5 c3.823 9.599 24.94 -1.223 20.75 -10.75 c3.743 3.638 5.85 8.347 6.25 12.75 c-8.595 14.08 -35.44 21.27 -18 31 c-15.05 1.978 -4.181 23.25 -9 35 z"/>
<path style="fill:#ca9081" d="M59 147 c3.805 -1.303 10.61 0.1377 15.25 0.75 l4.5 0 c-0.5452 -16.13 -37.38 -12.93 -19.75 -0.75 c-0.7966 1.922 -4.063 0.8398 -5.75 0.75 c-5.669 -25.14 31.49 -9.306 34.5 5 l-6.75 -1.75 l-22 -4 z"/>
<path style="fill:#e1a698" d="M59 147 c-17.63 -12.18 19.2 -15.38 19.75 0.75 l-4.5 0 c-4.636 -0.6123 -11.45 -2.053 -15.25 -0.75 z"/>
<path style="fill:#99544b" d="M81 140 c4.503 4.127 12.41 5.638 9 -3 c9.405 10.53 -6.046 14 -9 3 z"/>
<path style="fill:#683838" d="M139 146 l-11 0 c-8.691 13.87 23.9 4.332 32.75 9.75 c0.1159 -6.124 -7.945 -2.543 -10.75 -5.75 c7.425 -5.705 15.71 10.07 16 -1 l1 0 c4.825 6.429 -9.317 9.61 -1 15 c1.521 4.034 3.972 8.594 8 11 c1.181 -0.1547 1.019 1.337 1 2 c-0.87 3.101 1.573 6.781 5 6 c7.849 4.035 7.987 15.5 11 23 c5.6 16.42 -14.74 41.59 7 48 c13.02 8.073 -1.23 19.51 -11 13 c-3.886 -3.829 -13.93 7.217 -5 6 c1.085 15.77 -9.083 32.36 -6.75 49.75 l5 -4 l1.75 4.25 c-9.173 -1.792 -3.211 13.87 -9 3 c-5.87 -13.79 13.8 -40.87 -0.75 -42.25 l-0.25 -5.75 l15 -50 c1.592 -0.05586 0.8102 -2.053 1 -3 c1.418 -4.334 2.403 -13.09 -1 -17 c-1.435 -22.16 -24.01 -19.16 -40 -22 c-0.6634 0.01862 -2.155 0.1814 -2 -1 c-0.8524 -1.499 -3.169 -2.23 -5 -2 c1.825 -9.801 -4.014 -6.268 -10 -5 c0.1547 -1.181 -1.337 -1.019 -2 -1 c-6.131 -6.783 7.024 -8.755 12 -8 c7.457 1.398 15.65 0.5548 22.25 4.75 c0.9449 1.534 2.985 1.524 4.5 1 c4.337 -31.25 -54.45 -7.968 -41.5 -28.5 c3.573 -3.755 10.29 -2.34 13.75 -0.25 z"/>
<path style="fill:#441921" d="M139 146 c3.674 1.319 8.618 0.3706 11 4 c2.805 3.207 10.87 -0.3737 10.75 5.75 c-8.846 -5.418 -41.44 4.121 -32.75 -9.75 l11 0 z"/>
<path style="fill:#6e635f" d="M0 168 l0 -18 c5.98 4.389 0.2489 12.67 0 18 z"/>
<path style="fill:#c69681" d="M46 157 l-5 -3 c1.934 -6.118 5.085 -0.8116 5 3 z"/>
<path style="fill:#875e61" d="M86 163 c0.1016 -9.788 -11.17 -8.849 -18 -8 l-1 0 c-4.641 -1.377 -10.45 -3.1 -16 -3 c10.41 0.03781 36.43 -4.013 35 11 z"/>
<path style="fill:#cc937d" d="M94 151 l-2 7 c-1.55 -2.731 -0.1309 -5.225 2 -7 z"/>
<path style="fill:#95604c" d="M51 152 c-2.023 2.098 -0.39 4.226 1 6 c-3.831 0.6855 -5.869 -6.477 -1 -6 z"/>
<path style="fill:#6b3e42" d="M67 155 c-14.76 5.456 27.22 14.6 14.25 2.75 l-13.25 -2.75 c6.83 -0.8493 18.1 -1.788 18 8 l-10 2 c-8.109 0.7114 -12.79 -7.223 -21 -6 c-0.9471 -0.1898 -2.944 0.592 -3 -1 c-1.39 -1.774 -3.023 -3.902 -1 -6 c5.55 -0.09984 11.36 1.623 16 3 z"/>
<path style="fill:#fcf7ed" d="M29 183 l2 -8 c16.66 -21.51 58.17 20.46 71.75 -22.75 c3.607 14.87 -8.15 31.16 -9 45.5 c-21.75 -3.102 -39.32 2.946 -59.5 14 c-0.6719 -9.479 -8.277 -17.23 -5.25 -28.75 z"/>
<path style="fill:#572825" d="M52 153 c10.17 -0.3492 1.089 7.935 0 0 z"/>
<path style="fill:#88706b" d="M38 155 l0 2 c-1.943 2.974 -2.464 7.328 -6 9 l6 -11 z"/>
<path style="fill:#441f29" d="M67 155 l1 0 l13.25 2.75 c12.97 11.85 -29.01 2.706 -14.25 -2.75 z"/>
<path style="fill:#b6756e" d="M141 157 c6.477 -0.1852 11.64 3.433 17.25 5.75 c14.74 12.31 -54.27 1.308 -17.25 -5.75 z"/>
<path style="fill:#89535c" d="M76 165 c-7.706 0.846 -15.17 -2.024 -21 -6 c8.211 -1.223 12.89 6.711 21 6 z"/>
<path style="fill:#c9918d" d="M81 167 c-6.936 2.526 -16.27 2.154 -22 -3 c6.993 2.182 14.15 3.795 22 3 z"/>
<path style="fill:#4a1616" d="M174 175 c-4.028 -2.406 -6.479 -6.966 -8 -11 c10.84 0.0687 5.05 5.605 8 11 z"/>
<path style="fill:#52483d" d="M31 167 l0 2 c-1.642 1.571 -3.192 4.417 -3 7 l0 1 l-1 4 l-2 1 l1 -5 c0.6173 -3.403 2.099 -8.88 5 -10 z"/>
<path style="fill:#8a776f" d="M32 167 c0.01862 0.6634 0.1814 2.155 -1 2 l0 -2 l1 0 z"/>
<path style="fill:#8c7d72" d="M31 169 c0.1917 2.583 -1.358 5.429 -3 7 c-0.1917 -2.583 1.358 -5.429 3 -7 z"/>
<path style="fill:#662319" d="M129 173 c9.274 -1.118 -2.262 6.733 0 0 z"/>
<path style="fill:#3b1c26" d="M141 173 c9.323 -0.1888 24.05 -0.6468 25.75 11.75 c-9.247 3.648 -27.66 -0.1108 -25.75 -11.75 z"/>
<path style="fill:#80525a" d="M140 183 c-1.888 -5.946 -5.181 -3.314 -10 -5 c5.986 -1.268 11.82 -4.801 10 5 z"/>
<path style="fill:#888774" d="M28 177 l-1 4 l1 -4 z"/>
<path style="fill:#4f2a26" d="M180 183 c-3.427 0.7806 -5.87 -2.899 -5 -6 c1.031 2.055 2.722 4.754 5 6 z"/>
<path style="fill:#847d6d" d="M27 181 l-2 6 l0 -5 l2 -1 z"/>
<path style="fill:#54493e" d="M25 182 l0 5 l-2 1 c0.0431 -2.075 0.5873 -4.806 2 -6 z"/>
<path style="fill:#874e53" d="M145 185 c-1.725 -0.2981 -5.636 1.1 -5 -2 c1.831 -0.2297 4.148 0.5013 5 2 z"/>
<path style="fill:#905347" d="M187 208 c-7.765 -16.01 -24.94 -18.28 -40 -22 c15.99 2.844 38.56 -0.1571 40 22 z"/>
<path style="fill:#3b463f" d="M3 187 c10.99 4.297 -3.338 13.55 0 0 z"/>
<path style="fill:#88766b" d="M25 187 l0 6 l-1 8 l0 2 l-1 9 l0 3 l-1 0 l1 -27 l2 -1 z"/>
<path style="fill:#564542" d="M23 188 l-1 27 l0 1 l-1 0 c-0.8498 -9.336 -0.8355 -19.54 2 -28 z"/>
<path style="fill:#4e3845" d="M193 189 c9.291 5.254 -6.677 8.999 0 0 z"/>
<path style="fill:#b19f93" d="M25 193 l-1 8 l1 -8 z"/>
<path style="fill:#fcf1e3" d="M122 195 c13.53 -1.392 27.57 5.663 35.75 12.75 c-10.47 18.08 -44.14 10.5 -35.75 -12.75 z"/>
<path style="fill:#e7a08e" d="M95 202 c7.876 -2.174 5.258 6.134 7.75 9.25 c26.36 -2.169 -9.158 28.15 -23.5 18.5 c-4.455 -8.097 -18.32 -16.7 -11 -26.5 c8.795 1.733 19.05 4.471 26.75 -1.25 z"/>
<path style="fill:#aea291" d="M24 203 l-1 9 l1 -9 z"/>
<path style="fill:#d48672" d="M88 207 c-29.95 19.09 31.48 25.82 11 5 l-2 -2 c0.9299 -5.987 -5.866 -3.469 -9 -3 c11.52 -10.84 11.76 10.66 22 10 c-10.18 17.12 -36.66 12.6 -42 -6 c11.53 13.03 3.844 -14.93 0 0 c-3.28 -13.76 12.81 2.317 20 -4 z"/>
<path style="fill:#bd6b52" d="M68 211 c3.844 -14.93 11.53 13.03 0 0 z"/>
<path style="fill:#bc6d5c" d="M97 210 c-3.532 -5.795 -13.05 -0.5659 -10.75 5.75 c6.971 6.919 20.58 10.53 12.75 -3.75 c20.48 20.82 -40.95 14.09 -11 -5 c3.134 -0.4694 9.93 -2.987 9 3 z"/>
<path style="fill:#4f2626" d="M198 254 c-21.74 -6.415 -1.4 -31.58 -7 -48 c10.17 15.76 -12.05 37.06 7 48 z"/>
<path style="fill:#994a3e" d="M97 210 l2 2 c7.826 14.28 -5.779 10.67 -12.75 3.75 c-2.298 -6.316 7.218 -11.55 10.75 -5.75 z"/>
<path style="fill:#a8543c" d="M70 208 c6.108 2.745 -2.369 6.911 0 0 z"/>
<path style="fill:#8a514c" d="M188 225 c-0.0191 -5.757 0.3839 -11.64 -1 -17 c3.403 3.908 2.418 12.67 1 17 z"/>
<path style="fill:#71251c" d="M91 210 c4.478 -0.8107 9.76 4.962 5.75 8.75 c-2.74 -2.073 -11.24 -5.225 -5.75 -8.75 z"/>
<path style="fill:#13111a" d="M2 213 l5.75 1.25 c3.234 4.812 -4.084 4.467 -4.75 8.75 l10.75 6.25 c-6.712 21.4 7.2 10.34 5 30.5 c-8.068 -6.936 -10.42 5.038 -17.5 12 c-0.1693 -19.48 -1.064 -39.65 0.75 -58.75 z"/>
<path style="fill:#fdeddc" d="M56 214 c12.69 -1.82 0.5319 12.72 0 0 z"/>
<path style="fill:#a59381" d="M23 215 c-1.081 24 -2.947 49.33 12 68 l0 2 l-1 0 l-12 -27 l-1 -21 l0 -3 l1 -18 l0 -1 l1 0 z"/>
<path style="fill:#514f3e" d="M21 216 l0 18 l0 3 l-1 13 c-1.994 -10.17 0.1033 -23.71 1 -34 z"/>
<path style="fill:#797864" d="M22 216 l-1 18 l0 -18 l1 0 z"/>
<path style="fill:#f6eeda" d="M61 223 c7.364 2.938 -3.003 6.745 0 0 z"/>
<path style="fill:#8d544c" d="M187 228 l-15 50 l0.25 5.75 c14.55 1.383 -5.12 28.46 0.75 42.25 l-1 0 l0 -1 c-5.239 -13.66 13.29 -42.37 -5.75 -31.25 c-2.218 -1.528 -0.8949 -4.52 -1.25 -6.75 c14.77 -15.84 11.33 -41.31 22 -59 z"/>
<path style="fill:#d79376" d="M54 237 c-5.769 -0.07277 -17.53 3.666 -6 7 c-15.05 0.2488 -2.586 -11.77 6 -7 z"/>
<path style="fill:#d5695c" d="M57 236 c21.53 -2.349 50.94 7.645 56.75 25.75 l-7.75 -1.75 c-5.249 -0.4125 -10.91 -0.4257 -14 4 c-7.109 8.129 -11.86 0.5063 -20 0 l-4.25 -0.75 c-26.74 -19.1 42.54 -0.7635 14 -13 l-9.75 -2.25 c-6.876 -3.279 -13.27 -3.609 -21 -3 l-3 -1 c-11.53 -3.334 0.231 -7.073 6 -7 c0.05585 -1.592 2.053 -0.8102 3 -1 z"/>
<path style="fill:#736c59" d="M21 237 l1 21 l-2 -6 l0 -2 l1 -13 z"/>
<path style="fill:#b24231" d="M58 238 l31.75 4.25 c6.003 7.58 19.44 8.723 22 16.5 c-21 -6.088 -42.93 -15.95 -64.5 -18 l7.75 -0.75 c1.345 0.3336 2.737 -0.7089 3 -2 z"/>
<path style="fill:#e68579" d="M92 264 c-12.46 25.64 -54.98 -22.25 -16.25 -12.75 l-24.75 -6.25 c7.728 -0.6092 14.12 -0.2788 21 3 l9.75 2.25 c28.54 12.24 -40.74 -6.096 -14 13 l4.25 0.75 c8.135 0.5063 12.89 8.129 20 0 z"/>
<path style="fill:#665647" d="M22 258 l12 27 l-4 -3 c-1.177 -2.097 -1.134 -5.166 -4 -6 c0.01861 -0.6634 0.1814 -2.155 -1 -2 c-2.023 -7.232 -5.953 -13.91 -5 -22 l2 6 z"/>
<path style="fill:#502f25" d="M187 267 c-3.427 -0.7806 -5.87 2.899 -5 6 c-8.931 1.217 1.114 -9.829 5 -6 z"/>
<path style="fill:#14101c" d="M25 274 c1.181 -0.1547 1.019 1.337 1 2 c0.74 2.147 0.6235 6.351 4 6 c2.347 4.346 6.003 10.23 11 12 l1 1 c11.13 17.4 0.8838 36.54 -9 51 c-2.014 -0.2231 -4.223 1.986 -4 4 c-3.444 -1.064 -3.334 2.838 -4 5 c-8.054 4.885 -17.41 11.66 -23 19 c-1.501 -31.6 -1.999 -66.94 0.25 -98.75 l19 5.5 c1.227 -4.712 -3.471 -16.46 3.75 -6.75 z"/>
<path style="fill:#fcece2" d="M58 271 c4.402 1.092 9.112 1.131 13 4 c15.3 10.78 -36.74 2.523 -13 -4 z"/>
<path style="fill:#482f1f" d="M30 282 c-3.377 0.3513 -3.26 -3.853 -4 -6 c2.866 0.8336 2.823 3.903 4 6 z"/>
<path style="fill:#3e3245" d="M191 281 c6.527 2.694 -4.649 7.893 0 0 z"/>
<path style="fill:#43302e" d="M34 285 l5 6 l2 3 c-4.997 -1.769 -8.653 -7.654 -11 -12 l4 3 z"/>
<path style="fill:#7f6861" d="M35 285 l6 6 l-2 0 l-5 -6 l1 0 z"/>
<path style="fill:#6a514a" d="M41 291 c11.54 7.248 6.49 25.05 6 36 c-2.221 -10.06 5.077 -26.32 -5 -32 l-1 -1 l-2 -3 l2 0 z"/>
<path style="fill:#95786c" d="M49 327 l-5 6 l-1 0 l4 -6 c0.4905 -10.95 5.541 -28.75 -6 -36 c16.02 4.161 4.864 23.61 8 36 z"/>
<path style="fill:#281f37" d="M35 295 c6.995 6.231 -8.623 5.005 0 0 z"/>
<path style="fill:#423233" d="M47 327 l-4 6 c-1.291 0.2628 -2.334 1.655 -2 3 c-1.291 0.2628 -2.334 1.655 -2 3 c-1.456 0.6726 -3.326 2.147 -3 4 l-3 3 c9.884 -14.46 20.13 -33.6 9 -51 c10.08 5.678 2.779 21.94 5 32 z"/>
<path style="fill:#e9b6a2" d="M156 371 c-1.146 10.69 -16.48 19.81 -10.25 28.75 c-10.2 1.421 -16.3 -4.918 -9.75 7.25 l-28 0 c-8.507 -3.083 -17.52 -8.008 -21 -17 c-8.221 0.9759 1.615 11.82 -3 17 l-1 0 c-4.515 -18.79 -13.34 -37.19 -27.75 -50.75 c-0.1667 10.38 11.36 16.49 12.75 26.75 l-1 1 c-5.646 -3.423 -22.07 -3.201 -7.25 -11.75 c-7.103 -14.22 -16.26 -22.24 -12 -39 l-3.75 1.75 l0 -2 l5 -6 c1.822 -6.792 -0.2698 -37.19 8.75 -18.75 c10.87 20.1 18.24 52.25 45 55.5 c16.21 -20.84 46.72 -26.67 59.25 -45.75 c20.01 21.06 -20.01 47.5 -18.25 70.75 l12.25 -17.75 z"/>
<path style="fill:#5b3b4b" d="M200 319 l-6.75 -2.75 c0.584 20.78 1.79 44.28 8.75 65.75 c1.006 4.291 -0.6939 6.206 -4 7 c-1.083 2.717 -2.743 7.133 -6.75 7.75 c-5.449 -15.55 -5.384 -31.41 -4.25 -48.75 c-0.01862 -0.6634 -0.1814 -2.155 1 -2 l0.75 22.25 l1.5 14.5 l8.5 0 l-10.5 -70.5 c3.768 1.151 10.81 1.558 11.75 6.75 z"/>
<path style="fill:#8a656f" d="M200 319 l1 3 c-5.614 -0.2153 -3.567 8.009 -4 12 c-4.162 12.96 2.986 25.14 5 38 c0.05074 2.732 0.5046 6.171 2 8 l1 7 c0.9044 2.758 2.076 3.897 1 7 c-0.695 6.728 17.97 1.345 15 -7 l1 -2 l2 -1 c-4.935 7.297 -0.2806 15.81 2 23 l-10 0 c4.075 -11.53 -11.88 -11.5 -7 0 l-1 0 c0.1787 -3.735 -7.93 -10.11 -10 -4 c-6.939 2.433 -6.994 -4.611 -10 -8 c-3.782 -15.62 -4.239 -30.52 -2 -47 l1 0 c-1.134 17.34 -1.199 33.2 4.25 48.75 c4.007 -0.6167 5.667 -5.033 6.75 -7.75 c5.768 2.968 6.303 -3.591 4 -7 c-6.96 -21.47 -8.166 -44.97 -8.75 -65.75 l6.75 2.75 z"/>
<path style="fill:#654f5c" d="M207 326 l0 2 l-2 -1 l-4 -5 l-1 -3 l7 7 z"/>
<path style="fill:#a38895" d="M201 322 l4 5 c-5.878 -5.573 -8.182 0.4094 -7 7 l-1 0 c0.4326 -3.991 -1.614 -12.22 4 -12 z"/>
<path style="fill:#735158" d="M182 323 c5.629 5.689 4.13 15.37 6 23 c-1.181 -0.1547 -1.019 1.337 -1 2 l-1 0 l-1 -8 l-1 -10 c-5.587 -15.94 -4.249 9.452 -12 3 l1 -7 c5.789 10.87 -0.1726 -4.792 9 -3 z"/>
<path style="fill:#9d797f" d="M185 340 l-2 -1 c1.078 -2.884 1.094 -11.31 -3 -6 c-2.116 -0.6287 -2.141 1.824 -3 3 c-7.176 4.165 -6.135 -5.867 -5 -10 l1 0 l-1 7 c7.751 6.452 6.413 -18.94 12 -3 l1 10 z"/>
<path style="fill:#bfa8b1" d="M205 327 l2 1 l0 2 c-4.649 -3.619 -6.35 1.537 -9 4 c-1.182 -6.591 1.122 -12.57 7 -7 z"/>
<path style="fill:#3f425f" d="M234 334 l-5.75 0.75 c19.21 16.52 18.95 44.71 27.75 65.25 l0 7 l-1 0 c-12.84 -25.9 -10.79 -65.38 -42 -77 l1 5 l-5 -4 c0.3336 -1.345 -0.7089 -2.737 -2 -3 l0 -2 l27 8 z"/>
<path style="fill:#706371" d="M209 331 l-2 -1 l0 -2 c1.291 0.2628 2.334 1.655 2 3 z"/>
<path style="fill:#dec2ca" d="M207 330 l0 2 c-3.6 -2.378 -5.072 -1.21 -6 3 l0.75 0.75 c0.2036 -0.7155 1.296 -0.7155 1.5 0 l4.5 1 c-17.55 3.71 5.555 30.94 2.5 11.5 c6.719 1.041 7.29 -2.048 4.75 -7.25 l6 9 c-18.82 1.955 -2.423 26.11 1 35 l-1 2 l-2 3 c0.3954 -4.066 4.621 -10.83 -2.75 -10.75 c-3.26 3.087 -6.707 14.94 -0.25 13.75 c-1.664 1.616 -5.109 2.497 -7.75 1.75 c6.417 -17.83 -12.42 -39.53 -10.25 -60.75 c2.65 -2.463 4.351 -7.619 9 -4 z"/>
<path style="fill:#f0e6e7" d="M207 332 l2 1 l6 8 c2.54 5.202 1.969 8.291 -4.75 7.25 c3.055 19.44 -20.05 -7.79 -2.5 -11.5 l-4.5 -1 c-0.2036 -0.7155 -1.296 -0.7155 -1.5 0 l-0.75 -0.75 c0.9277 -4.21 2.4 -5.378 6 -3 z"/>
<path style="fill:#a69ca4" d="M209 331 l0 2 l-2 -1 l0 -2 l2 1 z"/>
<path style="fill:#2a1f3b" d="M255 407 l-8 0 c3.56 -6.101 -11.25 -10.92 -13 -4 c-1.291 0.2628 -2.334 1.655 -2 3 l-5 -4 c-4.516 -12.03 0.7224 -18.74 9 -27 c-8.681 -5.843 -8.331 -17.24 -13 -28 c-1.395 -3.782 -4.505 -7.596 -8 -10 l-1 0 l0 -2 l-1 -5 c31.21 11.62 29.16 51.1 42 77 z"/>
<path style="fill:#c3a5aa" d="M183 339 c-4.007 -0.4551 1.787 -6.416 -3 -6 c4.094 -5.31 4.078 3.116 3 6 z"/>
<path style="fill:#766d78" d="M214 335 l0 2 l-5 -4 l0 -2 l5 4 z"/>
<path style="fill:#766f72" d="M43 333 c0.3336 1.345 -0.7089 2.737 -2 3 c-0.3336 -1.345 0.7089 -2.737 2 -3 z"/>
<path style="fill:#b0aaad" d="M44 333 l0 2 l-5 6 l0 -2 c1.291 -0.2628 2.334 -1.655 2 -3 c1.291 -0.2628 2.334 -1.655 2 -3 l1 0 z"/>
<path style="fill:#eddfdc" d="M67 384 l5 22 c-12.4 -5 -12.16 -10.7 -6.25 -17.75 c-19.73 3.054 -24.37 -33.11 -20 -49 l-6.75 3.75 l0 -2 l5 -6 l3.75 -1.75 c-4.263 16.76 4.897 24.78 12 39 c-14.82 8.549 1.604 8.327 7.25 11.75 z"/>
<path style="fill:#d1bbbf" d="M180 333 c4.787 -0.4165 -1.007 5.545 3 6 l2 1 c1.249 18.8 -9.37 38.76 3 55 l0 3 c-9.57 -10.88 -9.204 -23.52 -7 -37 c-0.1199 -4.558 -3.366 -5.606 -6 -2 l4 -12 c2.651 -0.4065 2.651 -4.594 0 -5 l-3 -3 l1 -3 c0.8594 -1.176 0.8836 -3.629 3 -3 z"/>
<path style="fill:#b79da5" d="M214 337 l1 0 l6 9 c1.422 7.072 5.88 21.19 -5 21 c-0.8252 7.312 9.705 11.17 8 17 l-2 1 c-3.423 -8.893 -19.82 -33.05 -1 -35 l-6 -9 l-6 -8 l5 4 z"/>
<path style="fill:#bc9ca3" d="M198 334 c-2.172 21.22 16.67 42.92 10.25 60.75 c2.641 0.7466 6.086 -0.1343 7.75 -1.75 l3 -3 l2 -3 c2.971 8.345 -15.69 13.73 -15 7 c3.499 -2.743 4.904 -6.417 -1 -7 l-1 -7 c0.1749 -2.803 -0.1725 -6.256 -2 -8 c-2.014 -12.86 -9.162 -25.04 -5 -38 l1 0 z"/>
<path style="fill:#606586" d="M234 334 l1 1 l5 4 l-5.75 -0.75 c13.62 13.8 14.67 36.91 21.75 49.75 l0 12 c-8.796 -20.54 -8.54 -48.73 -27.75 -65.25 l5.75 -0.75 z"/>
<path style="fill:#384051" d="M244 341 l-2 0 c0.4557 -1.35 -0.6497 -2.456 -2 -2 l-5 -4 c3.273 0.8452 8.421 2.076 9 6 z"/>
<path style="fill:#6f6972" d="M41 336 c0.3336 1.345 -0.7089 2.737 -2 3 c-0.3336 -1.345 0.7089 -2.737 2 -3 z"/>
<path style="fill:#615760" d="M223 347 l-2 -1 l-6 -9 c3.495 2.404 6.605 6.218 8 10 z"/>
<path style="fill:#8086a1" d="M240 339 c1.35 -0.4557 2.456 0.6497 2 2 c-0.9471 0.1898 -2.944 -0.592 -3 1 c7.839 10.76 14.16 22.85 17 35 l0 11 c-7.077 -12.84 -8.133 -35.95 -21.75 -49.75 l5.75 0.75 z"/>
<path style="fill:#7d7781" d="M39 339 l0 2 l-3 2 c-0.3257 -1.853 1.544 -3.327 3 -4 z"/>
<path style="fill:#f8f7f6" d="M72 406 l0 1 l-16 0 c0.7508 -3.151 -4.781 -2.538 -5 0 l-44 0 c4.078 -13.27 0.9714 -33.3 14 -43 c-0.7005 2.779 -1.325 9.376 3 6 c4.344 0.01147 4.04 -5.141 5 -8 c2.883 -1.306 1.412 -4.422 1 -7 l9 -12 l6.75 -3.75 c-4.372 15.89 0.2651 52.05 20 49 c-5.911 7.049 -6.15 12.75 6.25 17.75 z"/>
<path style="fill:#a79290" d="M179 342 c-1.923 -0.5167 -4.491 0.694 -4 3 l-1 0 c-0.3141 -2.592 -0.1125 -4.851 2 -6 l3 3 z"/>
<path style="fill:#d4b0b0" d="M168 362 c0.05586 1.592 2.053 0.8102 3 1 c-5.804 5.227 -4.039 -9.358 -10 -3 l10 -20 c3.983 5.745 -4.107 14.38 -3 22 z"/>
<path style="fill:#a88e98" d="M186 348 c-2.239 16.48 -1.782 31.38 2 47 c-12.37 -16.24 -1.751 -36.2 -3 -55 l1 8 z"/>
<path style="fill:#c6c1c6" d="M39 341 l0 2 l-9 12 l-1 7 c-0.9605 2.859 -0.6564 8.011 -5 8 c-4.684 -0.364 1.142 -9.143 -3 -6 c-13.03 9.7 -9.922 29.73 -14 43 l-1 0 l0 -3 l2 -13 c1.493 -8.143 2.376 -17.78 7 -25 l6 -5 c2.654 -0.8394 6.803 -2.662 7 -6 l8 -12 l3 -2 z"/>
<path style="fill:#a0a7b9" d="M242 341 c0.6726 1.456 2.147 3.326 4 3 l2 2 l1 2 c-11.78 -7.439 2.995 9.176 5 14 l2 1 l0 14 c-2.839 -12.15 -9.161 -24.24 -17 -35 c0.05586 -1.592 2.053 -0.8102 3 -1 z"/>
<path style="fill:#767a91" d="M244 341 l2 3 c-1.853 0.3257 -3.327 -1.544 -4 -3 l2 0 z"/>
<path style="fill:#404254" d="M248 344 l-2 0 l-2 -3 c1.853 -0.3257 3.327 1.544 4 3 z"/>
<path style="fill:#93787a" d="M179 342 l0 5 l-4 7 l0 -9 c-0.4912 -2.306 2.077 -3.517 4 -3 z"/>
<path style="fill:#ad9c9c" d="M179 347 l0 -5 c2.651 0.4064 2.651 4.594 0 5 z"/>
<path style="fill:#80787e" d="M36 343 l-8 12 l-3 2 l0 -2 c1.682 -1.057 4.175 -2.715 4 -5 l4 -4 l3 -3 z"/>
<path style="fill:#885f69" d="M175 354 c-3.156 2.766 -3.377 -1.581 -3 -4 c-0.7817 -2.242 1.228 -3.327 2 -5 l1 0 l0 9 z"/>
<path style="fill:#6e6d7f" d="M248 344 l0 2 l-2 -2 l2 0 z"/>
<path style="fill:#454454" d="M250 346 l-2 0 l0 -2 l2 2 z"/>
<path style="fill:#bec2d4" d="M249 348 l5 5 l0 9 c-2.005 -4.824 -16.78 -21.44 -5 -14 z"/>
<path style="fill:#443c41" d="M33 346 l-4 4 c-0.2231 -2.014 1.986 -4.223 4 -4 z"/>
<path style="fill:#897683" d="M223 347 c1.741 10.78 3.907 19.23 -1.75 27.75 c10.03 -0.7028 15.53 2.149 2.75 9.25 c1.705 -5.834 -8.825 -9.688 -8 -17 c10.88 0.1923 6.422 -13.93 5 -21 l2 1 z"/>
<path style="fill:#717183" d="M250 346 l1 2 l-2 0 l-1 -2 l2 0 z"/>
<path style="fill:#b4969d" d="M179 347 l-4 12 l-4 4 c-0.9471 -0.1898 -2.944 0.592 -3 -1 l1 -1 c3.564 0.5526 5.276 -4.156 6 -7 l4 -7 z"/>
<path style="fill:#5e4b5a" d="M227 402 c-0.5865 2.451 0.4245 3.846 2 5 l-3 0 c-2.281 -7.191 -6.935 -15.7 -2 -23 c12.78 -7.101 7.277 -9.953 -2.75 -9.25 c5.657 -8.523 3.491 -16.97 1.75 -27.75 c4.669 10.76 4.319 22.16 13 28 c-8.278 8.259 -13.52 14.97 -9 27 z"/>
<path style="fill:#e9cfd7" d="M181 348 c8.276 4.871 -4.015 8.504 0 0 z"/>
<path style="fill:#9e9da8" d="M251 348 c1.057 1.682 2.715 4.175 5 4 l0 1 l-2 0 l-5 -5 l2 0 z"/>
<path style="fill:#605f6e" d="M256 350 l0 2 c-2.285 0.1751 -3.943 -2.318 -5 -4 l5 2 z"/>
<path style="fill:#eac1c4" d="M167 349 c6.526 2.034 -4.138 6.826 0 0 z"/>
<path style="fill:#443a43" d="M29 350 c0.1751 2.285 -2.318 3.943 -4 5 c0.6658 -2.162 0.5556 -6.064 4 -5 z"/>
<path style="fill:#a17c87" d="M172 350 c-0.3767 2.419 -0.1558 6.766 3 4 c-0.7241 2.844 -2.436 7.553 -6 7 l3 -11 z"/>
<path style="fill:#a88787" d="M216 352 c7.503 1.65 -2.18 6.417 0 0 z"/>
<path style="fill:#151127" d="M228 353 c4.821 0.1306 8.575 9.851 5 13 c-1.995 -3.784 -5.434 -8.1 -5 -13 z"/>
<path style="fill:#cfd5bc" d="M256 353 l0 10 l-2 -1 l0 -9 l2 0 z"/>
<path style="fill:#383743" d="M25 355 l0 2 c-0.6634 -0.01862 -2.155 -0.1814 -2 1 l-21 16 c5.586 -7.341 14.95 -14.12 23 -19 z"/>
<path style="fill:#a1969d" d="M28 355 c-0.1971 3.338 -4.346 5.161 -7 6 l2 -3 c0.6634 0.01862 2.155 0.1814 2 -1 l3 -2 z"/>
<path style="fill:#e0d0d1" d="M30 355 c0.4123 2.578 1.883 5.694 -1 7 l1 -7 z"/>
<path style="fill:#b58a82" d="M83 407 l-2 0 c-2.035 -8.318 -5.078 -16.89 -9.75 -23.75 l1.75 18.75 l-5 -19 c-1.392 -10.26 -12.92 -16.37 -12.75 -26.75 c14.41 13.56 23.24 31.96 27.75 50.75 z"/>
<path style="fill:#e8d2ce" d="M181 361 c-22.08 1.054 -5.713 28.69 -0.25 42.75 c-7.395 3.565 -8.654 -8.753 -15.75 -9.75 c-1.917 0.7893 -4.177 4.27 -1.75 5.75 c1.726 2.013 1.992 4.611 1.75 7.25 l-1 0 c0.9892 -6.692 -7.583 -7.78 -5 0 l-7 0 c3.91 -7.095 10.47 -13.07 7.75 -22.75 c-6.285 -2.204 -9.667 1.572 -6 6.5 c-11.1 1.234 -2.208 8.771 -7.75 16.25 l-2 0 c0.4373 -3.985 -7.675 -5.259 -6 0 l-2 0 c-6.551 -12.17 -0.4529 -5.829 9.75 -7.25 c-6.232 -8.943 9.104 -18.06 10.25 -28.75 l5 -11 c5.961 -6.358 4.196 8.227 10 3 l4 -4 c2.634 -3.606 5.88 -2.558 6 2 z"/>
<path style="fill:#716872" d="M25 357 c0.1547 1.181 -1.337 1.019 -2 1 c-0.1547 -1.181 1.337 -1.019 2 -1 z"/>
<path style="fill:#6e6e7a" d="M23 358 l-2 3 l-6 5 c-4.003 4.299 -9.408 8.172 -15 10 l0 -1 c0.6634 0.01862 2.155 0.1814 2 -1 l21 -16 z"/>
<path style="fill:#f7edee" d="M181 361 c-2.204 13.48 -2.57 26.12 7 37 l0 1 l1 8 l-24 0 c0.2419 -2.639 -0.02448 -5.237 -1.75 -7.25 c-2.427 -1.48 -0.167 -4.961 1.75 -5.75 c7.096 0.9972 8.355 13.31 15.75 9.75 c-5.463 -14.06 -21.83 -41.7 0.25 -42.75 z"/>
<path style="fill:#cdadb7" d="M216 360 c7.858 -1.536 0.8519 7.045 0 0 z"/>
<path style="fill:#ddd4d7" d="M24 370 c-4.325 3.376 -3.7 -3.221 -3 -6 c4.142 -3.143 -1.684 5.636 3 6 z"/>
<path style="fill:#aaaac1" d="M15 366 c-4.624 7.224 -5.507 16.86 -7 25 c2.637 -16.37 -7.362 -5.247 -7 4 l-1 0 l0 -13 c4.117 -0.1854 5.448 -6.937 0 -4 l0 -2 c5.592 -1.828 11 -5.701 15 -10 z"/>
<path style="fill:#a68189" d="M204 380 c-1.495 -1.829 -1.949 -5.268 -2 -8 c1.827 1.744 2.175 5.197 2 8 z"/>
<path style="fill:#bfc0de" d="M0 382 l0 -4 c5.448 -2.937 4.117 3.815 0 4 z"/>
<path style="fill:#f8e5e4" d="M157 377 c12.05 -1.596 -2.79 13.08 0 0 z"/>
<path style="fill:#c9adb1" d="M165 391 c5.55 1.206 6.667 -17.31 0 -11 c-0.5363 -2.666 2.767 -3.718 4.75 -2.75 c-3.092 11.01 7.612 17.16 8 25.5 l-12.75 -11.75 z"/>
<path style="fill:#be999c" d="M165 391 c-3.267 -2.347 -2.261 -8.557 0 -11 c6.667 -6.312 5.55 12.21 0 11 z"/>
<path style="fill:#f2e7e7" d="M219 390 l-3 3 c-6.457 1.186 -3.01 -10.66 0.25 -13.75 c7.371 -0.07922 3.145 6.684 2.75 10.75 z"/>
<path style="fill:#9090a9" d="M8 391 l-2 13 l0.75 -17.75 l-5.75 8.75 c-0.3619 -9.247 9.637 -20.37 7 -4 z"/>
<path style="fill:#79515d" d="M198 389 c3.306 -0.7936 5.006 -2.709 4 -7 c2.303 3.409 1.768 9.968 -4 7 z"/>
<path style="fill:#c4acad" d="M73 402 l0 5 l-1 0 l0 -1 l-5 -22 l1 -1 l5 19 z"/>
<path style="fill:#875b5b" d="M81 407 l-8 0 l0 -5 l-1.75 -18.75 c4.672 6.863 7.715 15.43 9.75 23.75 z"/>
<path style="fill:#f6eae5" d="M152 407 l-6 0 c5.542 -7.479 -3.352 -15.02 7.75 -16.25 c-3.667 -4.928 -0.2853 -8.704 6 -6.5 c2.721 9.685 -3.84 15.65 -7.75 22.75 z"/>
<path style="fill:#75738b" d="M6 404 l0 3 l-1 0 l0.75 -18.75 l-5.75 12.75 l0 -6 l1 0 l5.75 -8.75 l-0.75 17.75 z"/>
<path style="fill:#aa8186" d="M206 394 c1.076 -3.103 -0.09563 -4.242 -1 -7 c5.904 0.5834 4.499 4.257 1 7 z"/>
<path style="fill:#585568" d="M5 407 l-1 0 c2.145 -7.932 -4.163 -7.46 -3 0 l-1 0 l0 -6 l5.75 -12.75 l-0.75 18.75 z"/>
<path style="fill:#fad6c0" d="M108 407 l-24 0 c4.615 -5.178 -5.221 -16.02 3 -17 c3.483 8.992 12.49 13.92 21 17 z"/>
<path style="fill:#a27f86" d="M199 393 c10.25 0.4491 -5.282 9.558 0 0 z"/>
<path style="fill:#b7969c" d="M198 403 c1.82 0.7371 3.793 1.521 3 4 l-2 0 c-2.448 -3.434 -10.24 -1.616 -11 -8 l0 -1 l0 -3 c3.006 3.389 3.061 10.43 10 8 z"/>
<path style="fill:#703f43" d="M216 407 l-7 0 c-4.884 -11.5 11.08 -11.53 7 0 z"/>
<path style="fill:#dec1c7" d="M199 407 l-10 0 l-1 -8 c0.756 6.384 8.552 4.566 11 8 z"/>
<path style="fill:#33313f" d="M4 407 l-3 0 c-1.163 -7.46 5.145 -7.932 3 0 z"/>
<path style="fill:#aa8086" d="M208 407 l-7 0 c0.7932 -2.479 -1.18 -3.263 -3 -4 c2.07 -6.109 10.18 0.2653 10 4 z"/>
<path style="fill:#392160" d="M247 407 l-2 0 c-0.00209 -5.738 -7.114 -5.765 -11 -4 c1.748 -6.924 16.56 -2.101 13 4 z"/>
<path style="fill:#c4b0a8" d="M164 407 l-5 0 c-2.583 -7.78 5.989 -6.692 5 0 z"/>
<path style="fill:#532f49" d="M232 406 l0 1 l-3 0 c-1.575 -1.154 -2.586 -2.549 -2 -5 l5 4 z"/>
<path style="fill:#4c2f77" d="M245 407 l-2 0 c-1.252 -4.11 -7.748 -4.111 -9 0 l-2 0 l0 -1 c-0.3336 -1.345 0.7089 -2.737 2 -3 c3.886 -1.765 11 -1.738 11 4 z"/>
<path style="fill:#f9e8e1" d="M144 407 l-6 0 c-1.675 -5.259 6.437 -3.985 6 0 z"/>
<path style="fill:#60419a" d="M243 407 l-9 0 c1.252 -4.111 7.748 -4.11 9 0 z"/>
<path style="fill:#dcd6d7" d="M56 407 l-5 0 c0.219 -2.538 5.751 -3.151 5 0 z"/>
</svg>
